<?xml version="1.0" encoding="UTF-8" standalone="no"?><svg xmlns="http://www.w3.org/2000/svg" xmlns:xlink="http://www.w3.org/1999/xlink" contentScriptType="application/ecmascript" contentStyleType="text/css" height="597px" preserveAspectRatio="none" style="width:238px;height:597px;background:#FFFFFF;" version="1.1" viewBox="0 0 238 597" width="238px" zoomAndPan="magnify"><defs><filter height="300%" id="f17qle9tbsrnq0" width="300%" x="-1" y="-1"><feGaussianBlur result="blurOut" stdDeviation="2.0"/><feColorMatrix in="blurOut" result="blurOut2" type="matrix" values="0 0 0 0 0 0 0 0 0 0 0 0 0 0 0 0 0 0 .4 0"/><feOffset dx="4.0" dy="4.0" in="blurOut2" result="blurOut3"/><feBlend in="SourceGraphic" in2="blurOut3" mode="normal"/></filter></defs><g><!--MD5=[deb4e1f6eb1e3c1256fdb830f96abfbb]
class Country--><rect codeLine="2" fill="#FEFECE" filter="url(#f17qle9tbsrnq0)" height="269.375" id="Country" style="stroke:#A80036;stroke-width:1.5;" width="118" x="83" y="7"/><ellipse cx="117.8" cy="23" fill="#ADD1B2" rx="11" ry="11" style="stroke:#A80036;stroke-width:1.0;"/><path d="M120.5656,18.875 Q120.7219,18.6563 120.9094,18.5469 Q121.0969,18.4375 121.3156,18.4375 Q121.6906,18.4375 121.925,18.6953 Q122.1594,18.9531 122.1594,19.5625 L122.1594,21.0156 Q122.1594,21.625 121.925,21.8906 Q121.6906,22.1563 121.3156,22.1563 Q120.9719,22.1563 120.7688,21.9531 Q120.5656,21.7656 120.4563,21.25 Q120.4094,20.8906 120.2219,20.7031 Q119.8938,20.3281 119.2844,20.1094 Q118.675,19.8906 118.05,19.8906 Q117.2844,19.8906 116.6516,20.2188 Q116.0188,20.5469 115.5266,21.2969 Q115.0344,22.0469 115.0344,23.0781 L115.0344,24.1719 Q115.0344,25.4063 115.925,26.2266 Q116.8156,27.0469 118.4094,27.0469 Q119.3469,27.0469 120.0031,26.7969 Q120.3938,26.6406 120.8156,26.2031 Q121.0813,25.9375 121.2297,25.8594 Q121.3781,25.7813 121.5813,25.7813 Q121.9094,25.7813 122.1672,26.0391 Q122.425,26.2969 122.425,26.6406 Q122.425,26.9844 122.0813,27.3906 Q121.5813,27.9688 120.7844,28.2969 Q119.7063,28.75 118.4094,28.75 Q116.8938,28.75 115.6906,28.125 Q114.7063,27.625 114.0188,26.5547 Q113.3313,25.4844 113.3313,24.2031 L113.3313,23.0469 Q113.3313,21.7188 113.9484,20.5703 Q114.5656,19.4219 115.6594,18.8047 Q116.7531,18.1875 117.9875,18.1875 Q118.7219,18.1875 119.3703,18.3516 Q120.0188,18.5156 120.5656,18.875 Z " fill="#000000"/><text fill="#000000" font-family="sans-serif" font-size="12" lengthAdjust="spacing" textLength="42" x="136.2" y="27.9102">Country</text><line style="stroke:#A80036;stroke-width:1.5;" x1="84" x2="200" y1="39" y2="39"/><text fill="#000000" font-family="sans-serif" font-size="11" lengthAdjust="spacing" textLength="60" x="89" y="54.4189">cca2 : string</text><text fill="#000000" font-family="sans-serif" font-size="11" lengthAdjust="spacing" textLength="60" x="89" y="68.2549">ccn3 : string</text><text fill="#000000" font-family="sans-serif" font-size="11" lengthAdjust="spacing" textLength="60" x="89" y="82.0908">cca3 : string</text><text fill="#000000" font-family="sans-serif" font-size="11" lengthAdjust="spacing" textLength="56" x="89" y="95.9268">cioc : string</text><text fill="#000000" font-family="sans-serif" font-size="11" lengthAdjust="spacing" textLength="106" x="89" y="109.7627">independent : boolean</text><text fill="#000000" font-family="sans-serif" font-size="11" lengthAdjust="spacing" textLength="66" x="89" y="123.5986">status : string</text><text fill="#000000" font-family="sans-serif" font-size="11" lengthAdjust="spacing" textLength="97" x="89" y="137.4346">unMember : boolean</text><text fill="#000000" font-family="sans-serif" font-size="11" lengthAdjust="spacing" textLength="73" x="89" y="151.2705">capital : string[]</text><text fill="#000000" font-family="sans-serif" font-size="11" lengthAdjust="spacing" textLength="66" x="89" y="165.1064">region : string</text><text fill="#000000" font-family="sans-serif" font-size="11" lengthAdjust="spacing" textLength="84" x="89" y="178.9424">subregion : string</text><text fill="#000000" font-family="sans-serif" font-size="11" lengthAdjust="spacing" textLength="98" x="89" y="192.7783">landlocked : boolean</text><text fill="#000000" font-family="sans-serif" font-size="11" lengthAdjust="spacing" textLength="67" x="89" y="206.6143">area : number</text><text fill="#000000" font-family="sans-serif" font-size="11" lengthAdjust="spacing" textLength="39" x="89" y="220.4502">flag : url</text><text fill="#000000" font-family="sans-serif" font-size="11" lengthAdjust="spacing" textLength="94" x="89" y="234.2861">population : number</text><text fill="#000000" font-family="sans-serif" font-size="11" lengthAdjust="spacing" textLength="52" x="89" y="248.1221">fifa : string</text><text fill="#000000" font-family="sans-serif" font-size="11" lengthAdjust="spacing" textLength="97" x="89" y="261.958">startOfWeek : string</text><line style="stroke:#A80036;stroke-width:1.5;" x1="84" x2="200" y1="268.375" y2="268.375"/><!--MD5=[53f6a92bd21ca2f2960392a061f3a1c6]
class Name--><rect codeLine="21" fill="#FEFECE" filter="url(#f17qle9tbsrnq0)" height="75.6719" id="Name" style="stroke:#A80036;stroke-width:1.5;" width="88" x="13" y="354"/><ellipse cx="37.9" cy="370" fill="#ADD1B2" rx="11" ry="11" style="stroke:#A80036;stroke-width:1.0;"/><path d="M40.6656,365.875 Q40.8219,365.6563 41.0094,365.5469 Q41.1969,365.4375 41.4156,365.4375 Q41.7906,365.4375 42.025,365.6953 Q42.2594,365.9531 42.2594,366.5625 L42.2594,368.0156 Q42.2594,368.625 42.025,368.8906 Q41.7906,369.1563 41.4156,369.1563 Q41.0719,369.1563 40.8688,368.9531 Q40.6656,368.7656 40.5563,368.25 Q40.5094,367.8906 40.3219,367.7031 Q39.9938,367.3281 39.3844,367.1094 Q38.775,366.8906 38.15,366.8906 Q37.3844,366.8906 36.7516,367.2188 Q36.1188,367.5469 35.6266,368.2969 Q35.1344,369.0469 35.1344,370.0781 L35.1344,371.1719 Q35.1344,372.4063 36.025,373.2266 Q36.9156,374.0469 38.5094,374.0469 Q39.4469,374.0469 40.1031,373.7969 Q40.4938,373.6406 40.9156,373.2031 Q41.1813,372.9375 41.3297,372.8594 Q41.4781,372.7813 41.6813,372.7813 Q42.0094,372.7813 42.2672,373.0391 Q42.525,373.2969 42.525,373.6406 Q42.525,373.9844 42.1813,374.3906 Q41.6813,374.9688 40.8844,375.2969 Q39.8063,375.75 38.5094,375.75 Q36.9938,375.75 35.7906,375.125 Q34.8063,374.625 34.1188,373.5547 Q33.4313,372.4844 33.4313,371.2031 L33.4313,370.0469 Q33.4313,368.7188 34.0484,367.5703 Q34.6656,366.4219 35.7594,365.8047 Q36.8531,365.1875 38.0875,365.1875 Q38.8219,365.1875 39.4703,365.3516 Q40.1188,365.5156 40.6656,365.875 Z " fill="#000000"/><text fill="#000000" font-family="sans-serif" font-size="12" lengthAdjust="spacing" textLength="34" x="54.1" y="374.9102">Name</text><line style="stroke:#A80036;stroke-width:1.5;" x1="14" x2="100" y1="386" y2="386"/><text fill="#000000" font-family="sans-serif" font-size="11" lengthAdjust="spacing" textLength="76" x="19" y="401.4189">common : string</text><text fill="#000000" font-family="sans-serif" font-size="11" lengthAdjust="spacing" textLength="68" x="19" y="415.2549">official : string</text><line style="stroke:#A80036;stroke-width:1.5;" x1="14" x2="100" y1="421.6719" y2="421.6719"/><!--MD5=[c90c63d1ad2018268e2dae604030abd2]
class NativeName--><rect codeLine="28" fill="#FEFECE" filter="url(#f17qle9tbsrnq0)" height="75.6719" id="NativeName" style="stroke:#A80036;stroke-width:1.5;" width="100" x="7" y="508"/><ellipse cx="22" cy="524" fill="#ADD1B2" rx="11" ry="11" style="stroke:#A80036;stroke-width:1.0;"/><path d="M24.7656,519.875 Q24.9219,519.6563 25.1094,519.5469 Q25.2969,519.4375 25.5156,519.4375 Q25.8906,519.4375 26.125,519.6953 Q26.3594,519.9531 26.3594,520.5625 L26.3594,522.0156 Q26.3594,522.625 26.125,522.8906 Q25.8906,523.1563 25.5156,523.1563 Q25.1719,523.1563 24.9688,522.9531 Q24.7656,522.7656 24.6563,522.25 Q24.6094,521.8906 24.4219,521.7031 Q24.0938,521.3281 23.4844,521.1094 Q22.875,520.8906 22.25,520.8906 Q21.4844,520.8906 20.8516,521.2188 Q20.2188,521.5469 19.7266,522.2969 Q19.2344,523.0469 19.2344,524.0781 L19.2344,525.1719 Q19.2344,526.4063 20.125,527.2266 Q21.0156,528.0469 22.6094,528.0469 Q23.5469,528.0469 24.2031,527.7969 Q24.5938,527.6406 25.0156,527.2031 Q25.2813,526.9375 25.4297,526.8594 Q25.5781,526.7813 25.7813,526.7813 Q26.1094,526.7813 26.3672,527.0391 Q26.625,527.2969 26.625,527.6406 Q26.625,527.9844 26.2813,528.3906 Q25.7813,528.9688 24.9844,529.2969 Q23.9063,529.75 22.6094,529.75 Q21.0938,529.75 19.8906,529.125 Q18.9063,528.625 18.2188,527.5547 Q17.5313,526.4844 17.5313,525.2031 L17.5313,524.0469 Q17.5313,522.7188 18.1484,521.5703 Q18.7656,520.4219 19.8594,519.8047 Q20.9531,519.1875 22.1875,519.1875 Q22.9219,519.1875 23.5703,519.3516 Q24.2188,519.5156 24.7656,519.875 Z " fill="#000000"/><text fill="#000000" font-family="sans-serif" font-size="12" lengthAdjust="spacing" textLength="68" x="36" y="528.9102">NativeName</text><line style="stroke:#A80036;stroke-width:1.5;" x1="8" x2="106" y1="540" y2="540"/><text fill="#000000" font-family="sans-serif" font-size="11" lengthAdjust="spacing" textLength="76" x="13" y="555.4189">common : string</text><text fill="#000000" font-family="sans-serif" font-size="11" lengthAdjust="spacing" textLength="68" x="13" y="569.2549">official : string</text><line style="stroke:#A80036;stroke-width:1.5;" x1="8" x2="106" y1="575.6719" y2="575.6719"/><!--MD5=[604575fdb45ee3504bf55618cb71a1d3]
class Language--><rect codeLine="35" fill="#FEFECE" filter="url(#f17qle9tbsrnq0)" height="75.6719" id="Language" style="stroke:#A80036;stroke-width:1.5;" width="88" x="136" y="354"/><ellipse cx="151" cy="370" fill="#ADD1B2" rx="11" ry="11" style="stroke:#A80036;stroke-width:1.0;"/><path d="M153.7656,365.875 Q153.9219,365.6563 154.1094,365.5469 Q154.2969,365.4375 154.5156,365.4375 Q154.8906,365.4375 155.125,365.6953 Q155.3594,365.9531 155.3594,366.5625 L155.3594,368.0156 Q155.3594,368.625 155.125,368.8906 Q154.8906,369.1563 154.5156,369.1563 Q154.1719,369.1563 153.9688,368.9531 Q153.7656,368.7656 153.6563,368.25 Q153.6094,367.8906 153.4219,367.7031 Q153.0938,367.3281 152.4844,367.1094 Q151.875,366.8906 151.25,366.8906 Q150.4844,366.8906 149.8516,367.2188 Q149.2188,367.5469 148.7266,368.2969 Q148.2344,369.0469 148.2344,370.0781 L148.2344,371.1719 Q148.2344,372.4063 149.125,373.2266 Q150.0156,374.0469 151.6094,374.0469 Q152.5469,374.0469 153.2031,373.7969 Q153.5938,373.6406 154.0156,373.2031 Q154.2813,372.9375 154.4297,372.8594 Q154.5781,372.7813 154.7813,372.7813 Q155.1094,372.7813 155.3672,373.0391 Q155.625,373.2969 155.625,373.6406 Q155.625,373.9844 155.2813,374.3906 Q154.7813,374.9688 153.9844,375.2969 Q152.9063,375.75 151.6094,375.75 Q150.0938,375.75 148.8906,375.125 Q147.9063,374.625 147.2188,373.5547 Q146.5313,372.4844 146.5313,371.2031 L146.5313,370.0469 Q146.5313,368.7188 147.1484,367.5703 Q147.7656,366.4219 148.8594,365.8047 Q149.9531,365.1875 151.1875,365.1875 Q151.9219,365.1875 152.5703,365.3516 Q153.2188,365.5156 153.7656,365.875 Z " fill="#000000"/><text fill="#000000" font-family="sans-serif" font-size="12" lengthAdjust="spacing" textLength="56" x="165" y="374.9102">Language</text><line style="stroke:#A80036;stroke-width:1.5;" x1="137" x2="223" y1="386" y2="386"/><text fill="#000000" font-family="sans-serif" font-size="11" lengthAdjust="spacing" textLength="76" x="142" y="401.4189">common : string</text><text fill="#000000" font-family="sans-serif" font-size="11" lengthAdjust="spacing" textLength="68" x="142" y="415.2549">official : string</text><line style="stroke:#A80036;stroke-width:1.5;" x1="137" x2="223" y1="421.6719" y2="421.6719"/><!--MD5=[bc54fd65df8a301f4c0c0155c8dd8d5f]
link Country to Name--><path codeLine="26" d="M92.3805,287.5622 C92.3805,287.5622 79.35,325.66 73.98,341.35 " fill="none" id="Country-Name" style="stroke:#A80036;stroke-width:1.0;"/><polygon fill="#A80036" points="69.69,353.89,76.3837,346.6654,71.3057,349.1583,68.8129,344.0803,69.69,353.89" style="stroke:#A80036;stroke-width:1.0;"/><line style="stroke:#A80036;stroke-width:1.0;" x1="71.3057" x2="73.905" y1="349.1583" y2="341.59"/><polygon fill="#A80036" points="96.27,276.21,90.5412,280.5896,92.3805,287.5622,98.1093,283.1826,96.27,276.21" style="stroke:#A80036;stroke-width:1.0;"/><text fill="#000000" font-family="sans-serif" font-size="13" lengthAdjust="spacing" textLength="32" x="86" y="320.4951">name</text><!--MD5=[60ca472c654d2179bb5bdbaaeddfe290]
link Name to NativeName--><path codeLine="33" d="M57,442.18 C57,442.18 57,478.05 57,494.57 " fill="none" id="Name-NativeName" style="stroke:#A80036;stroke-width:1.0;"/><polygon fill="#A80036" points="57,507.94,61,498.94,57,502.94,53,498.94,57,507.94" style="stroke:#A80036;stroke-width:1.0;"/><line style="stroke:#A80036;stroke-width:1.0;" x1="57" x2="57" y1="502.94" y2="494.94"/><polygon fill="#A80036" points="57,430.18,53,436.18,57,442.18,61,436.18,57,430.18" style="stroke:#A80036;stroke-width:1.0;"/><text fill="#000000" font-family="sans-serif" font-size="13" lengthAdjust="spacing" textLength="67" x="58" y="474.4951">nativeName</text><text fill="#000000" font-family="sans-serif" font-size="13" lengthAdjust="spacing" textLength="8" x="48.2625" y="497.0055">+</text><!--MD5=[5c5d54713b624e0859d85a8404ad32f5]
link Country to Language--><path codeLine="40" d="M164.2559,288.0733 C164.2559,288.0733 170,325.57 172.35,341 " fill="none" id="Country-Language" style="stroke:#A80036;stroke-width:1.0;"/><polygon fill="#A80036" points="174.33,353.89,176.9197,344.3877,173.5722,348.9478,169.0122,345.6002,174.33,353.89" style="stroke:#A80036;stroke-width:1.0;"/><line style="stroke:#A80036;stroke-width:1.0;" x1="173.5722" x2="172.36" y1="348.9478" y2="341.04"/><polygon fill="#A80036" points="162.45,276.21,159.3985,282.7436,164.2559,288.0733,167.3074,281.5397,162.45,276.21" style="stroke:#A80036;stroke-width:1.0;"/><text fill="#000000" font-family="sans-serif" font-size="13" lengthAdjust="spacing" textLength="59" x="169" y="320.4951">languages</text><text fill="#000000" font-family="sans-serif" font-size="13" lengthAdjust="spacing" textLength="8" x="164.6075" y="343.2323">+</text><!--MD5=[8eee1717e7cf9cd2c417cf3d8de32b95]
@startuml vocabulary

class Country {
  cca2 : string
  ccn3 : string
  cca3 : string
  cioc : string
  independent : boolean
  status : string
  unMember : boolean
  capital : string[]
  region : string
  subregion : string
  landlocked : boolean
  area : number
  flag : url
  population : number
  fifa : string
  startOfWeek : string
}

class Name {
  common : string
  official : string
}

Country *-down-> Name : name

class NativeName {
  common : string
  official : string
}

Name *-down-> "+" NativeName : nativeName

class Language {
  common : string
  official : string
}

Country *-down-> "+" Language : languages

@enduml

PlantUML version 1.2022.0(Tue Jan 11 17:16:42 CET 2022)
(GPL source distribution)
Java Runtime: Java(TM) SE Runtime Environment
JVM: Java HotSpot(TM) Client VM
Default Encoding: Cp1252
Language: es
Country: ES
--></g></svg>