<?xml version="1.0" encoding="UTF-8" standalone="no"?><svg xmlns="http://www.w3.org/2000/svg" xmlns:xlink="http://www.w3.org/1999/xlink" contentStyleType="text/css" height="904px" preserveAspectRatio="none" style="width:743px;height:904px;background:#FFFFFF;" version="1.1" viewBox="0 0 743 904" width="743px" zoomAndPan="magnify"><defs/><g><g id="A"><rect fill="#F1F1F1" height="50" rx="12.5" ry="12.5" style="stroke:#181818;stroke-width:0.5;" width="80" x="441.86" y="87"/><line style="stroke:#181818;stroke-width:0.5;" x1="441.86" x2="521.86" y1="114.6094" y2="114.6094"/><text fill="#000000" font-family="sans-serif" font-size="14" lengthAdjust="spacing" textLength="60" x="451.86" y="106.5332">IN_GAME</text></g><g id="B"><rect fill="#F1F1F1" height="50" rx="12.5" ry="12.5" style="stroke:#181818;stroke-width:0.5;" width="50" x="456.86" y="215"/><line style="stroke:#181818;stroke-width:0.5;" x1="456.86" x2="506.86" y1="242.6094" y2="242.6094"/><text fill="#000000" font-family="sans-serif" font-size="14" lengthAdjust="spacing" textLength="4" x="479.86" y="234.5332"> </text></g><g id="C"><rect fill="#F1F1F1" height="50" rx="12.5" ry="12.5" style="stroke:#181818;stroke-width:0.5;" width="50" x="335.86" y="343"/><line style="stroke:#181818;stroke-width:0.5;" x1="335.86" x2="385.86" y1="370.6094" y2="370.6094"/><text fill="#000000" font-family="sans-serif" font-size="14" lengthAdjust="spacing" textLength="4" x="358.86" y="362.5332"> </text></g><g id="D"><rect fill="#F1F1F1" height="50" rx="12.5" ry="12.5" style="stroke:#181818;stroke-width:0.5;" width="50" x="31.86" y="750"/><line style="stroke:#181818;stroke-width:0.5;" x1="31.86" x2="81.86" y1="777.6094" y2="777.6094"/><text fill="#000000" font-family="sans-serif" font-size="14" lengthAdjust="spacing" textLength="4" x="54.86" y="769.5332"> </text></g><g id="E"><rect fill="#F1F1F1" height="50" rx="12.5" ry="12.5" style="stroke:#181818;stroke-width:0.5;" width="50" x="489.86" y="606"/><line style="stroke:#181818;stroke-width:0.5;" x1="489.86" x2="539.86" y1="633.6094" y2="633.6094"/><text fill="#000000" font-family="sans-serif" font-size="14" lengthAdjust="spacing" textLength="4" x="512.86" y="625.5332"> </text></g><g id="elem_if"><polygon fill="#F1F1F1" points="360.86,471,372.86,483,360.86,495,348.86,483,360.86,471" style="stroke:#181818;stroke-width:0.5;"/></g><g id="elem_if2"><polygon fill="#F1F1F1" points="166.86,619,178.86,631,166.86,643,154.86,631,166.86,619" style="stroke:#181818;stroke-width:0.5;"/></g><ellipse cx="481.86" cy="16" fill="#222222" rx="10" ry="10" style="stroke:none;stroke-width:1.0;"/><ellipse cx="183.86" cy="888" fill="none" rx="10" ry="10" style="stroke:#222222;stroke-width:1.0;"/><ellipse cx="184.36" cy="888.5" fill="#222222" rx="6" ry="6" style="stroke:none;stroke-width:1.0;"/><g id="F"><rect fill="#F1F1F1" height="50" rx="12.5" ry="12.5" style="stroke:#181818;stroke-width:0.5;" width="50" x="281.86" y="750"/><line style="stroke:#181818;stroke-width:0.5;" x1="281.86" x2="331.86" y1="777.6094" y2="777.6094"/><text fill="#000000" font-family="sans-serif" font-size="14" lengthAdjust="spacing" textLength="9" x="302.36" y="769.5332">F</text></g><!--MD5=[ba0fdac9700f9825b754e67fda8ee1b2]
link *start to A--><g id="link_*start_A"><path d="M481.86,26.01 C481.86,38.7 481.86,62.41 481.86,81.57 " fill="none" id="*start-to-A" style="stroke:#181818;stroke-width:1.0;"/><polygon fill="#181818" points="481.86,86.84,485.86,77.84,481.86,81.84,477.86,77.84,481.86,86.84" style="stroke:#181818;stroke-width:1.0;"/></g><!--MD5=[5e2eec62a50b26b6b0db6c12e4ee289c]
link A to B--><g id="link_A_B"><path d="M481.86,137.29 C481.86,157.95 481.86,187.67 481.86,209.65 " fill="none" id="A-to-B" style="stroke:#181818;stroke-width:1.0;"/><polygon fill="#181818" points="481.86,214.78,485.86,205.78,481.86,209.78,477.86,205.78,481.86,214.78" style="stroke:#181818;stroke-width:1.0;"/><text fill="#000000" font-family="sans-serif" font-size="13" lengthAdjust="spacing" textLength="191" x="482.86" y="181.4951">Current turn player requests Play</text></g><!--MD5=[cd25d8247324207f828a4db9f58ed69d]
link B to C--><g id="link_B_C"><path d="M456.68,243.88 C427.24,248.75 379.73,261.61 357.86,295 C349.73,307.4 349.77,323.74 352.15,337.72 " fill="none" id="B-to-C" style="stroke:#181818;stroke-width:1.0;"/><polygon fill="#181818" points="353.13,342.75,355.3625,333.1575,352.1879,337.8396,347.5058,334.6649,353.13,342.75" style="stroke:#181818;stroke-width:1.0;"/><text fill="#000000" font-family="sans-serif" font-size="13" lengthAdjust="spacing" textLength="218" x="358.86" y="309.4951">System request column to drop token</text></g><!--MD5=[8e556ce71fbf4c7bc9c604630f8cff04]
link C to if--><g id="link_C_if"><path d="M360.86,393.24 C360.86,414.99 360.86,446.32 360.86,465.35 " fill="none" id="C-to-if" style="stroke:#181818;stroke-width:1.0;"/><polygon fill="#181818" points="360.86,470.84,364.86,461.84,360.86,465.84,356.86,461.84,360.86,470.84" style="stroke:#181818;stroke-width:1.0;"/><text fill="#000000" font-family="sans-serif" font-size="13" lengthAdjust="spacing" textLength="198" x="361.86" y="437.4951">Current turn player answer column</text></g><!--MD5=[fbcf4d8b63b0d06d3e3c8b74b14e3ec9]
link if to E--><g id="link_if_E"><path d="M365.27,490.62 C378.98,511.13 420.1,572.48 423.86,576 C441.9,592.91 466.12,606.96 485.04,616.49 " fill="none" id="if-to-E" style="stroke:#181818;stroke-width:1.0;"/><polygon fill="#181818" points="489.73,618.82,483.4593,611.2254,485.255,616.5897,479.8907,618.3854,489.73,618.82" style="stroke:#181818;stroke-width:1.0;"/><text fill="#000000" font-family="sans-serif" font-size="13" lengthAdjust="spacing" textLength="148" x="424.86" y="547.9951">[column &lt; 1 || 7 &lt; column</text><text fill="#000000" font-family="sans-serif" font-size="13" lengthAdjust="spacing" textLength="134" x="433.86" y="564.3467">|| column is completed]</text></g><!--MD5=[d4cf52809f8352340c61cac675d98a65]
link E to B--><g id="link_E_B"><path d="M540.12,617.2 C555.26,608.01 573.22,594.06 581.86,576 C635.75,463.34 645.83,402.26 581.86,295 C566.85,269.85 535.63,255.71 512.03,248.27 " fill="none" id="E-to-B" style="stroke:#181818;stroke-width:1.0;"/><polygon fill="#181818" points="507.13,246.78,514.5747,253.228,511.9132,248.2364,516.9049,245.5749,507.13,246.78" style="stroke:#181818;stroke-width:1.0;"/><text fill="#000000" font-family="sans-serif" font-size="13" lengthAdjust="spacing" textLength="109" x="626.86" y="437.4951">System show error</text></g><!--MD5=[6f73a881cd5a6f9cd3fc5b66b68b30e7]
link if to if2--><g id="link_if_if2"><path d="M350.3,484.48 C312.55,486.42 185.22,495.13 160.86,525 C139.06,551.72 152.69,596.16 161.34,617.64 " fill="none" id="if-to-if2" style="stroke:#181818;stroke-width:1.0;"/><polygon fill="#181818" points="163.3,622.34,163.52,612.4936,161.3719,617.7267,156.1387,615.5786,163.3,622.34" style="stroke:#181818;stroke-width:1.0;"/><text fill="#000000" font-family="sans-serif" font-size="13" lengthAdjust="spacing" textLength="178" x="179.86" y="539.4951">System show board with token</text><text fill="#000000" font-family="sans-serif" font-size="13" lengthAdjust="spacing" textLength="214" x="161.86" y="555.8467">occupying the lowest available space</text><text fill="#000000" font-family="sans-serif" font-size="13" lengthAdjust="spacing" textLength="105" x="218.36" y="572.1982">within the column]</text></g><!--MD5=[d80ffbfaeeb7df4654d29544c47f793c]
link if2 to D--><g id="link_if2_D"><path d="M155.82,632.09 C127.31,633 51.16,639.83 18.86,686 C6,704.38 17.22,727.81 30.72,745.86 " fill="none" id="if2-to-D" style="stroke:#181818;stroke-width:1.0;"/><polygon fill="#181818" points="33.82,749.87,31.4831,740.3024,30.7632,745.9133,25.1523,745.1933,33.82,749.87" style="stroke:#181818;stroke-width:1.0;"/><text fill="#000000" font-family="sans-serif" font-size="13" lengthAdjust="spacing" textLength="214" x="34.86" y="700.4951">[the first to form a horizontal, vertical,</text><text fill="#000000" font-family="sans-serif" font-size="13" lengthAdjust="spacing" textLength="248" x="19.86" y="716.8467">or diagonal line of four of one's own tokens]</text></g><!--MD5=[51efe90a7f482fc138f2ff6aff84f914]
link D to *end--><g id="link_D_*end"><path d="M57.26,800.07 C58.75,815.5 63.09,835.01 74.86,848 C99.59,875.3 144.79,883.5 168.46,885.96 " fill="none" id="D-to-*end" style="stroke:#181818;stroke-width:1.0;"/><polygon fill="#181818" points="173.72,886.44,165.1241,881.6327,168.741,885.9822,164.3915,889.5991,173.72,886.44" style="stroke:#181818;stroke-width:1.0;"/><text fill="#000000" font-family="sans-serif" font-size="13" lengthAdjust="spacing" textLength="177" x="75.86" y="844.4951">System show winner message</text></g><!--MD5=[cc1abbd5c7ed3a808edbd58025ba5132]
link if2 to F--><g id="link_if2_F"><path d="M175.88,634.22 C196.05,639.62 245.18,655.33 272.86,686 C287.7,702.45 296.35,726.09 301.21,744.72 " fill="none" id="if2-to-F" style="stroke:#181818;stroke-width:1.0;"/><polygon fill="#181818" points="302.48,749.84,304.1777,740.1386,301.2673,744.9893,296.4166,742.0789,302.48,749.84" style="stroke:#181818;stroke-width:1.0;"/><text fill="#000000" font-family="sans-serif" font-size="13" lengthAdjust="spacing" textLength="140" x="293.86" y="708.4951">[the board is completed]</text></g><!--MD5=[37f58d88441e0da07239a4f6e976772c]
link F to *end--><g id="link_F_*end"><path d="M296.07,800.08 C288.29,815.32 276.58,834.61 261.86,848 C242.87,865.26 214.84,876.76 198.06,882.56 " fill="none" id="F-to-*end" style="stroke:#181818;stroke-width:1.0;"/><polygon fill="#181818" points="193.24,884.18,203.0439,885.1198,197.982,882.5946,200.5072,877.5326,193.24,884.18" style="stroke:#181818;stroke-width:1.0;"/><text fill="#000000" font-family="sans-serif" font-size="13" lengthAdjust="spacing" textLength="161" x="278.86" y="844.4951">System show tied message</text></g><!--MD5=[ff91696beac0bfa0e86dc2af503b1682]
@startuml playUseCaseSpecification
state A as "IN_GAME"
state B as " "
state C as " "
state D as " "
state E as " "

state if <<choice>>
state if2 <<choice>>

[*] - -> A
A - -> B: Current turn player requests Play
B - -> C: System request column to drop token
C - -> if: Current turn player answer column
if - -> E: [column < 1 || 7 < column \n|| column is completed]
E - -> B: System show error
if - -> if2: System show board with token \noccupying the lowest available space \nwithin the column]
if2 - -> D: [the first to form a horizontal, vertical, \nor diagonal line of four of one's own tokens]
D - -> [*]: System show winner message
if2 - -> F: [the board is completed]
F - -> [*]: System show tied message
@enduml

PlantUML version 1.2022.5(Sat Apr 30 12:55:52 CEST 2022)
(GPL source distribution)
Java Runtime: Java(TM) SE Runtime Environment
JVM: Java HotSpot(TM) 64-Bit Server VM
Default Encoding: Cp1252
Language: es
Country: ES
--></g></svg>