<?xml version="1.0" encoding="UTF-8" standalone="no"?><svg xmlns="http://www.w3.org/2000/svg" xmlns:xlink="http://www.w3.org/1999/xlink" contentStyleType="text/css" height="951px" preserveAspectRatio="none" style="width:1132px;height:951px;background:#FFFFFF;" version="1.1" viewBox="0 0 1132 951" width="1132px" zoomAndPan="magnify"><defs/><g><!--MD5=[36f719b1cbc3f26b5758ea249b208fb4]
class TicTacToe--><g id="elem_TicTacToe"><rect fill="#F1F1F1" height="48" id="TicTacToe" rx="2.5" ry="2.5" style="stroke:#181818;stroke-width:0.5;" width="100" x="646" y="7"/><ellipse cx="661" cy="23" fill="#ADD1B2" rx="11" ry="11" style="stroke:#181818;stroke-width:1.0;"/><path d="M663.7656,18.875 Q663.9219,18.6563 664.1094,18.5469 Q664.2969,18.4375 664.5156,18.4375 Q664.8906,18.4375 665.125,18.7031 Q665.3594,18.9531 665.3594,19.5625 L665.3594,21.0156 Q665.3594,21.625 665.125,21.8906 Q664.8906,22.1563 664.5156,22.1563 Q664.1719,22.1563 663.9688,21.9531 Q663.7656,21.7656 663.6563,21.25 Q663.6094,20.8906 663.4219,20.7031 Q663.0938,20.3281 662.4844,20.1094 Q661.875,19.8906 661.25,19.8906 Q660.4844,19.8906 659.8438,20.2188 Q659.2188,20.5469 658.7188,21.2969 Q658.2344,22.0469 658.2344,23.0781 L658.2344,24.1719 Q658.2344,25.4063 659.125,26.2344 Q660.0156,27.0469 661.6094,27.0469 Q662.5469,27.0469 663.2031,26.7969 Q663.5938,26.6406 664.0156,26.2031 Q664.2813,25.9375 664.4219,25.8594 Q664.5781,25.7813 664.7813,25.7813 Q665.1094,25.7813 665.3594,26.0469 Q665.625,26.2969 665.625,26.6406 Q665.625,26.9844 665.2813,27.3906 Q664.7813,27.9688 663.9844,28.2969 Q662.9063,28.75 661.6094,28.75 Q660.0938,28.75 658.8906,28.125 Q657.9063,27.625 657.2188,26.5625 Q656.5313,25.4844 656.5313,24.2031 L656.5313,23.0469 Q656.5313,21.7188 657.1406,20.5781 Q657.7656,19.4219 658.8594,18.8125 Q659.9531,18.1875 661.1875,18.1875 Q661.9219,18.1875 662.5625,18.3594 Q663.2188,18.5156 663.7656,18.875 Z " fill="#000000"/><text fill="#000000" font-family="sans-serif" font-size="14" lengthAdjust="spacing" textLength="68" x="675" y="28.7285">TicTacToe</text><line style="stroke:#181818;stroke-width:0.5;" x1="647" x2="745" y1="39" y2="39"/><line style="stroke:#181818;stroke-width:0.5;" x1="647" x2="745" y1="47" y2="47"/></g><!--MD5=[2cb47ba637a0d19583e6199456f6ad0b]
class Player--><g id="elem_Player"><rect fill="#F1F1F1" height="48" id="Player" rx="2.5" ry="2.5" style="stroke:#181818;stroke-width:0.5;" width="72" x="576" y="225"/><ellipse cx="591" cy="241" fill="#ADD1B2" rx="11" ry="11" style="stroke:#181818;stroke-width:1.0;"/><path d="M593.7656,236.875 Q593.9219,236.6563 594.1094,236.5469 Q594.2969,236.4375 594.5156,236.4375 Q594.8906,236.4375 595.125,236.7031 Q595.3594,236.9531 595.3594,237.5625 L595.3594,239.0156 Q595.3594,239.625 595.125,239.8906 Q594.8906,240.1563 594.5156,240.1563 Q594.1719,240.1563 593.9688,239.9531 Q593.7656,239.7656 593.6563,239.25 Q593.6094,238.8906 593.4219,238.7031 Q593.0938,238.3281 592.4844,238.1094 Q591.875,237.8906 591.25,237.8906 Q590.4844,237.8906 589.8438,238.2188 Q589.2188,238.5469 588.7188,239.2969 Q588.2344,240.0469 588.2344,241.0781 L588.2344,242.1719 Q588.2344,243.4063 589.125,244.2344 Q590.0156,245.0469 591.6094,245.0469 Q592.5469,245.0469 593.2031,244.7969 Q593.5938,244.6406 594.0156,244.2031 Q594.2813,243.9375 594.4219,243.8594 Q594.5781,243.7813 594.7813,243.7813 Q595.1094,243.7813 595.3594,244.0469 Q595.625,244.2969 595.625,244.6406 Q595.625,244.9844 595.2813,245.3906 Q594.7813,245.9688 593.9844,246.2969 Q592.9063,246.75 591.6094,246.75 Q590.0938,246.75 588.8906,246.125 Q587.9063,245.625 587.2188,244.5625 Q586.5313,243.4844 586.5313,242.2031 L586.5313,241.0469 Q586.5313,239.7188 587.1406,238.5781 Q587.7656,237.4219 588.8594,236.8125 Q589.9531,236.1875 591.1875,236.1875 Q591.9219,236.1875 592.5625,236.3594 Q593.2188,236.5156 593.7656,236.875 Z " fill="#000000"/><text fill="#000000" font-family="sans-serif" font-size="14" lengthAdjust="spacing" textLength="40" x="605" y="246.7285">Player</text><line style="stroke:#181818;stroke-width:0.5;" x1="577" x2="647" y1="257" y2="257"/><line style="stroke:#181818;stroke-width:0.5;" x1="577" x2="647" y1="265" y2="265"/></g><!--MD5=[9563755d011c5cec7ec66dc53565a59e]
class Board--><g id="elem_Board"><rect fill="#F1F1F1" height="48" id="Board" rx="2.5" ry="2.5" style="stroke:#181818;stroke-width:0.5;" width="70" x="955" y="334"/><ellipse cx="970" cy="350" fill="#ADD1B2" rx="11" ry="11" style="stroke:#181818;stroke-width:1.0;"/><path d="M972.7656,345.875 Q972.9219,345.6563 973.1094,345.5469 Q973.2969,345.4375 973.5156,345.4375 Q973.8906,345.4375 974.125,345.7031 Q974.3594,345.9531 974.3594,346.5625 L974.3594,348.0156 Q974.3594,348.625 974.125,348.8906 Q973.8906,349.1563 973.5156,349.1563 Q973.1719,349.1563 972.9688,348.9531 Q972.7656,348.7656 972.6563,348.25 Q972.6094,347.8906 972.4219,347.7031 Q972.0938,347.3281 971.4844,347.1094 Q970.875,346.8906 970.25,346.8906 Q969.4844,346.8906 968.8438,347.2188 Q968.2188,347.5469 967.7188,348.2969 Q967.2344,349.0469 967.2344,350.0781 L967.2344,351.1719 Q967.2344,352.4063 968.125,353.2344 Q969.0156,354.0469 970.6094,354.0469 Q971.5469,354.0469 972.2031,353.7969 Q972.5938,353.6406 973.0156,353.2031 Q973.2813,352.9375 973.4219,352.8594 Q973.5781,352.7813 973.7813,352.7813 Q974.1094,352.7813 974.3594,353.0469 Q974.625,353.2969 974.625,353.6406 Q974.625,353.9844 974.2813,354.3906 Q973.7813,354.9688 972.9844,355.2969 Q971.9063,355.75 970.6094,355.75 Q969.0938,355.75 967.8906,355.125 Q966.9063,354.625 966.2188,353.5625 Q965.5313,352.4844 965.5313,351.2031 L965.5313,350.0469 Q965.5313,348.7188 966.1406,347.5781 Q966.7656,346.4219 967.8594,345.8125 Q968.9531,345.1875 970.1875,345.1875 Q970.9219,345.1875 971.5625,345.3594 Q972.2188,345.5156 972.7656,345.875 Z " fill="#000000"/><text fill="#000000" font-family="sans-serif" font-size="14" lengthAdjust="spacing" textLength="38" x="984" y="355.7285">Board</text><line style="stroke:#181818;stroke-width:0.5;" x1="956" x2="1024" y1="366" y2="366"/><line style="stroke:#181818;stroke-width:0.5;" x1="956" x2="1024" y1="374" y2="374"/></g><!--MD5=[dd91eae41778c45e12552e5329e240e8]
class Turn--><g id="elem_Turn"><rect fill="#F1F1F1" height="48" id="Turn" rx="2.5" ry="2.5" style="stroke:#181818;stroke-width:0.5;" width="62" x="665" y="116"/><ellipse cx="680" cy="132" fill="#ADD1B2" rx="11" ry="11" style="stroke:#181818;stroke-width:1.0;"/><path d="M682.7656,127.875 Q682.9219,127.6563 683.1094,127.5469 Q683.2969,127.4375 683.5156,127.4375 Q683.8906,127.4375 684.125,127.7031 Q684.3594,127.9531 684.3594,128.5625 L684.3594,130.0156 Q684.3594,130.625 684.125,130.8906 Q683.8906,131.1563 683.5156,131.1563 Q683.1719,131.1563 682.9688,130.9531 Q682.7656,130.7656 682.6563,130.25 Q682.6094,129.8906 682.4219,129.7031 Q682.0938,129.3281 681.4844,129.1094 Q680.875,128.8906 680.25,128.8906 Q679.4844,128.8906 678.8438,129.2188 Q678.2188,129.5469 677.7188,130.2969 Q677.2344,131.0469 677.2344,132.0781 L677.2344,133.1719 Q677.2344,134.4063 678.125,135.2344 Q679.0156,136.0469 680.6094,136.0469 Q681.5469,136.0469 682.2031,135.7969 Q682.5938,135.6406 683.0156,135.2031 Q683.2813,134.9375 683.4219,134.8594 Q683.5781,134.7813 683.7813,134.7813 Q684.1094,134.7813 684.3594,135.0469 Q684.625,135.2969 684.625,135.6406 Q684.625,135.9844 684.2813,136.3906 Q683.7813,136.9688 682.9844,137.2969 Q681.9063,137.75 680.6094,137.75 Q679.0938,137.75 677.8906,137.125 Q676.9063,136.625 676.2188,135.5625 Q675.5313,134.4844 675.5313,133.2031 L675.5313,132.0469 Q675.5313,130.7188 676.1406,129.5781 Q676.7656,128.4219 677.8594,127.8125 Q678.9531,127.1875 680.1875,127.1875 Q680.9219,127.1875 681.5625,127.3594 Q682.2188,127.5156 682.7656,127.875 Z " fill="#000000"/><text fill="#000000" font-family="sans-serif" font-size="14" lengthAdjust="spacing" textLength="30" x="694" y="137.7285">Turn</text><line style="stroke:#181818;stroke-width:0.5;" x1="666" x2="726" y1="148" y2="148"/><line style="stroke:#181818;stroke-width:0.5;" x1="666" x2="726" y1="156" y2="156"/></g><!--MD5=[e05bacf3ff4416a0580578814d41bbf6]
class Piece--><g id="elem_Piece"><rect fill="#F1F1F1" height="48" id="Piece" rx="2.5" ry="2.5" style="stroke:#181818;stroke-width:0.5;" width="67" x="551.5" y="678"/><ellipse cx="566.5" cy="694" fill="#ADD1B2" rx="11" ry="11" style="stroke:#181818;stroke-width:1.0;"/><path d="M569.2656,689.875 Q569.4219,689.6563 569.6094,689.5469 Q569.7969,689.4375 570.0156,689.4375 Q570.3906,689.4375 570.625,689.7031 Q570.8594,689.9531 570.8594,690.5625 L570.8594,692.0156 Q570.8594,692.625 570.625,692.8906 Q570.3906,693.1563 570.0156,693.1563 Q569.6719,693.1563 569.4688,692.9531 Q569.2656,692.7656 569.1563,692.25 Q569.1094,691.8906 568.9219,691.7031 Q568.5938,691.3281 567.9844,691.1094 Q567.375,690.8906 566.75,690.8906 Q565.9844,690.8906 565.3438,691.2188 Q564.7188,691.5469 564.2188,692.2969 Q563.7344,693.0469 563.7344,694.0781 L563.7344,695.1719 Q563.7344,696.4063 564.625,697.2344 Q565.5156,698.0469 567.1094,698.0469 Q568.0469,698.0469 568.7031,697.7969 Q569.0938,697.6406 569.5156,697.2031 Q569.7813,696.9375 569.9219,696.8594 Q570.0781,696.7813 570.2813,696.7813 Q570.6094,696.7813 570.8594,697.0469 Q571.125,697.2969 571.125,697.6406 Q571.125,697.9844 570.7813,698.3906 Q570.2813,698.9688 569.4844,699.2969 Q568.4063,699.75 567.1094,699.75 Q565.5938,699.75 564.3906,699.125 Q563.4063,698.625 562.7188,697.5625 Q562.0313,696.4844 562.0313,695.2031 L562.0313,694.0469 Q562.0313,692.7188 562.6406,691.5781 Q563.2656,690.4219 564.3594,689.8125 Q565.4531,689.1875 566.6875,689.1875 Q567.4219,689.1875 568.0625,689.3594 Q568.7188,689.5156 569.2656,689.875 Z " fill="#000000"/><text fill="#000000" font-family="sans-serif" font-size="14" lengthAdjust="spacing" textLength="35" x="580.5" y="699.7285">Piece</text><line style="stroke:#181818;stroke-width:0.5;" x1="552.5" x2="617.5" y1="710" y2="710"/><line style="stroke:#181818;stroke-width:0.5;" x1="552.5" x2="617.5" y1="718" y2="718"/></g><!--MD5=[0992d3fdc9d3d7c02b735131bb70871d]
class Goal--><g id="elem_Goal"><rect fill="#F1F1F1" height="48" id="Goal" rx="2.5" ry="2.5" style="stroke:#181818;stroke-width:0.5;" width="62" x="581" y="334"/><ellipse cx="596" cy="350" fill="#ADD1B2" rx="11" ry="11" style="stroke:#181818;stroke-width:1.0;"/><path d="M598.7656,345.875 Q598.9219,345.6563 599.1094,345.5469 Q599.2969,345.4375 599.5156,345.4375 Q599.8906,345.4375 600.125,345.7031 Q600.3594,345.9531 600.3594,346.5625 L600.3594,348.0156 Q600.3594,348.625 600.125,348.8906 Q599.8906,349.1563 599.5156,349.1563 Q599.1719,349.1563 598.9688,348.9531 Q598.7656,348.7656 598.6563,348.25 Q598.6094,347.8906 598.4219,347.7031 Q598.0938,347.3281 597.4844,347.1094 Q596.875,346.8906 596.25,346.8906 Q595.4844,346.8906 594.8438,347.2188 Q594.2188,347.5469 593.7188,348.2969 Q593.2344,349.0469 593.2344,350.0781 L593.2344,351.1719 Q593.2344,352.4063 594.125,353.2344 Q595.0156,354.0469 596.6094,354.0469 Q597.5469,354.0469 598.2031,353.7969 Q598.5938,353.6406 599.0156,353.2031 Q599.2813,352.9375 599.4219,352.8594 Q599.5781,352.7813 599.7813,352.7813 Q600.1094,352.7813 600.3594,353.0469 Q600.625,353.2969 600.625,353.6406 Q600.625,353.9844 600.2813,354.3906 Q599.7813,354.9688 598.9844,355.2969 Q597.9063,355.75 596.6094,355.75 Q595.0938,355.75 593.8906,355.125 Q592.9063,354.625 592.2188,353.5625 Q591.5313,352.4844 591.5313,351.2031 L591.5313,350.0469 Q591.5313,348.7188 592.1406,347.5781 Q592.7656,346.4219 593.8594,345.8125 Q594.9531,345.1875 596.1875,345.1875 Q596.9219,345.1875 597.5625,345.3594 Q598.2188,345.5156 598.7656,345.875 Z " fill="#000000"/><text fill="#000000" font-family="sans-serif" font-size="14" lengthAdjust="spacing" textLength="30" x="610" y="355.7285">Goal</text><line style="stroke:#181818;stroke-width:0.5;" x1="582" x2="642" y1="366" y2="366"/><line style="stroke:#181818;stroke-width:0.5;" x1="582" x2="642" y1="374" y2="374"/></g><!--MD5=[18eee71c88ab61f27581b8cbdd3ef5ee]
class Color--><g id="elem_Color"><rect fill="#F1F1F1" height="48" id="Color" rx="2.5" ry="2.5" style="stroke:#181818;stroke-width:0.5;" width="66" x="32" y="787"/><ellipse cx="47" cy="803" fill="#ADD1B2" rx="11" ry="11" style="stroke:#181818;stroke-width:1.0;"/><path d="M49.7656,798.875 Q49.9219,798.6563 50.1094,798.5469 Q50.2969,798.4375 50.5156,798.4375 Q50.8906,798.4375 51.125,798.7031 Q51.3594,798.9531 51.3594,799.5625 L51.3594,801.0156 Q51.3594,801.625 51.125,801.8906 Q50.8906,802.1563 50.5156,802.1563 Q50.1719,802.1563 49.9688,801.9531 Q49.7656,801.7656 49.6563,801.25 Q49.6094,800.8906 49.4219,800.7031 Q49.0938,800.3281 48.4844,800.1094 Q47.875,799.8906 47.25,799.8906 Q46.4844,799.8906 45.8438,800.2188 Q45.2188,800.5469 44.7188,801.2969 Q44.2344,802.0469 44.2344,803.0781 L44.2344,804.1719 Q44.2344,805.4063 45.125,806.2344 Q46.0156,807.0469 47.6094,807.0469 Q48.5469,807.0469 49.2031,806.7969 Q49.5938,806.6406 50.0156,806.2031 Q50.2813,805.9375 50.4219,805.8594 Q50.5781,805.7813 50.7813,805.7813 Q51.1094,805.7813 51.3594,806.0469 Q51.625,806.2969 51.625,806.6406 Q51.625,806.9844 51.2813,807.3906 Q50.7813,807.9688 49.9844,808.2969 Q48.9063,808.75 47.6094,808.75 Q46.0938,808.75 44.8906,808.125 Q43.9063,807.625 43.2188,806.5625 Q42.5313,805.4844 42.5313,804.2031 L42.5313,803.0469 Q42.5313,801.7188 43.1406,800.5781 Q43.7656,799.4219 44.8594,798.8125 Q45.9531,798.1875 47.1875,798.1875 Q47.9219,798.1875 48.5625,798.3594 Q49.2188,798.5156 49.7656,798.875 Z " fill="#000000"/><text fill="#000000" font-family="sans-serif" font-size="14" lengthAdjust="spacing" textLength="34" x="61" y="808.7285">Color</text><line style="stroke:#181818;stroke-width:0.5;" x1="33" x2="97" y1="819" y2="819"/><line style="stroke:#181818;stroke-width:0.5;" x1="33" x2="97" y1="827" y2="827"/></g><!--MD5=[f8e7078f77c005d15b486c0c98deb1e6]
class Action--><g id="elem_Action"><rect fill="#F1F1F1" height="48" id="Action" rx="2.5" ry="2.5" style="stroke:#181818;stroke-width:0.5;" width="71" x="848.5" y="334"/><ellipse cx="863.5" cy="350" fill="#ADD1B2" rx="11" ry="11" style="stroke:#181818;stroke-width:1.0;"/><path d="M866.2656,345.875 Q866.4219,345.6563 866.6094,345.5469 Q866.7969,345.4375 867.0156,345.4375 Q867.3906,345.4375 867.625,345.7031 Q867.8594,345.9531 867.8594,346.5625 L867.8594,348.0156 Q867.8594,348.625 867.625,348.8906 Q867.3906,349.1563 867.0156,349.1563 Q866.6719,349.1563 866.4688,348.9531 Q866.2656,348.7656 866.1563,348.25 Q866.1094,347.8906 865.9219,347.7031 Q865.5938,347.3281 864.9844,347.1094 Q864.375,346.8906 863.75,346.8906 Q862.9844,346.8906 862.3438,347.2188 Q861.7188,347.5469 861.2188,348.2969 Q860.7344,349.0469 860.7344,350.0781 L860.7344,351.1719 Q860.7344,352.4063 861.625,353.2344 Q862.5156,354.0469 864.1094,354.0469 Q865.0469,354.0469 865.7031,353.7969 Q866.0938,353.6406 866.5156,353.2031 Q866.7813,352.9375 866.9219,352.8594 Q867.0781,352.7813 867.2813,352.7813 Q867.6094,352.7813 867.8594,353.0469 Q868.125,353.2969 868.125,353.6406 Q868.125,353.9844 867.7813,354.3906 Q867.2813,354.9688 866.4844,355.2969 Q865.4063,355.75 864.1094,355.75 Q862.5938,355.75 861.3906,355.125 Q860.4063,354.625 859.7188,353.5625 Q859.0313,352.4844 859.0313,351.2031 L859.0313,350.0469 Q859.0313,348.7188 859.6406,347.5781 Q860.2656,346.4219 861.3594,345.8125 Q862.4531,345.1875 863.6875,345.1875 Q864.4219,345.1875 865.0625,345.3594 Q865.7188,345.5156 866.2656,345.875 Z " fill="#000000"/><text fill="#000000" font-family="sans-serif" font-size="14" lengthAdjust="spacing" textLength="39" x="877.5" y="355.7285">Action</text><line style="stroke:#181818;stroke-width:0.5;" x1="849.5" x2="918.5" y1="366" y2="366"/><line style="stroke:#181818;stroke-width:0.5;" x1="849.5" x2="918.5" y1="374" y2="374"/></g><!--MD5=[80913b1cc667c5997af01db625a44293]
class Put--><g id="elem_Put"><rect fill="#F1F1F1" height="48" id="Put" rx="2.5" ry="2.5" style="stroke:#181818;stroke-width:0.5;" width="53" x="777.5" y="443"/><ellipse cx="792.5" cy="459" fill="#ADD1B2" rx="11" ry="11" style="stroke:#181818;stroke-width:1.0;"/><path d="M795.2656,454.875 Q795.4219,454.6563 795.6094,454.5469 Q795.7969,454.4375 796.0156,454.4375 Q796.3906,454.4375 796.625,454.7031 Q796.8594,454.9531 796.8594,455.5625 L796.8594,457.0156 Q796.8594,457.625 796.625,457.8906 Q796.3906,458.1563 796.0156,458.1563 Q795.6719,458.1563 795.4688,457.9531 Q795.2656,457.7656 795.1563,457.25 Q795.1094,456.8906 794.9219,456.7031 Q794.5938,456.3281 793.9844,456.1094 Q793.375,455.8906 792.75,455.8906 Q791.9844,455.8906 791.3438,456.2188 Q790.7188,456.5469 790.2188,457.2969 Q789.7344,458.0469 789.7344,459.0781 L789.7344,460.1719 Q789.7344,461.4063 790.625,462.2344 Q791.5156,463.0469 793.1094,463.0469 Q794.0469,463.0469 794.7031,462.7969 Q795.0938,462.6406 795.5156,462.2031 Q795.7813,461.9375 795.9219,461.8594 Q796.0781,461.7813 796.2813,461.7813 Q796.6094,461.7813 796.8594,462.0469 Q797.125,462.2969 797.125,462.6406 Q797.125,462.9844 796.7813,463.3906 Q796.2813,463.9688 795.4844,464.2969 Q794.4063,464.75 793.1094,464.75 Q791.5938,464.75 790.3906,464.125 Q789.4063,463.625 788.7188,462.5625 Q788.0313,461.4844 788.0313,460.2031 L788.0313,459.0469 Q788.0313,457.7188 788.6406,456.5781 Q789.2656,455.4219 790.3594,454.8125 Q791.4531,454.1875 792.6875,454.1875 Q793.4219,454.1875 794.0625,454.3594 Q794.7188,454.5156 795.2656,454.875 Z " fill="#000000"/><text fill="#000000" font-family="sans-serif" font-size="14" lengthAdjust="spacing" textLength="21" x="806.5" y="464.7285">Put</text><line style="stroke:#181818;stroke-width:0.5;" x1="778.5" x2="829.5" y1="475" y2="475"/><line style="stroke:#181818;stroke-width:0.5;" x1="778.5" x2="829.5" y1="483" y2="483"/></g><!--MD5=[1981719fa3982d92ef7fd3f06d73b3e7]
class Move--><g id="elem_Move"><rect fill="#F1F1F1" height="48" id="Move" rx="2.5" ry="2.5" style="stroke:#181818;stroke-width:0.5;" width="66" x="937" y="443"/><ellipse cx="952" cy="459" fill="#ADD1B2" rx="11" ry="11" style="stroke:#181818;stroke-width:1.0;"/><path d="M954.7656,454.875 Q954.9219,454.6563 955.1094,454.5469 Q955.2969,454.4375 955.5156,454.4375 Q955.8906,454.4375 956.125,454.7031 Q956.3594,454.9531 956.3594,455.5625 L956.3594,457.0156 Q956.3594,457.625 956.125,457.8906 Q955.8906,458.1563 955.5156,458.1563 Q955.1719,458.1563 954.9688,457.9531 Q954.7656,457.7656 954.6563,457.25 Q954.6094,456.8906 954.4219,456.7031 Q954.0938,456.3281 953.4844,456.1094 Q952.875,455.8906 952.25,455.8906 Q951.4844,455.8906 950.8438,456.2188 Q950.2188,456.5469 949.7188,457.2969 Q949.2344,458.0469 949.2344,459.0781 L949.2344,460.1719 Q949.2344,461.4063 950.125,462.2344 Q951.0156,463.0469 952.6094,463.0469 Q953.5469,463.0469 954.2031,462.7969 Q954.5938,462.6406 955.0156,462.2031 Q955.2813,461.9375 955.4219,461.8594 Q955.5781,461.7813 955.7813,461.7813 Q956.1094,461.7813 956.3594,462.0469 Q956.625,462.2969 956.625,462.6406 Q956.625,462.9844 956.2813,463.3906 Q955.7813,463.9688 954.9844,464.2969 Q953.9063,464.75 952.6094,464.75 Q951.0938,464.75 949.8906,464.125 Q948.9063,463.625 948.2188,462.5625 Q947.5313,461.4844 947.5313,460.2031 L947.5313,459.0469 Q947.5313,457.7188 948.1406,456.5781 Q948.7656,455.4219 949.8594,454.8125 Q950.9531,454.1875 952.1875,454.1875 Q952.9219,454.1875 953.5625,454.3594 Q954.2188,454.5156 954.7656,454.875 Z " fill="#000000"/><text fill="#000000" font-family="sans-serif" font-size="14" lengthAdjust="spacing" textLength="34" x="966" y="464.7285">Move</text><line style="stroke:#181818;stroke-width:0.5;" x1="938" x2="1002" y1="475" y2="475"/><line style="stroke:#181818;stroke-width:0.5;" x1="938" x2="1002" y1="483" y2="483"/></g><!--MD5=[b203f6b098b8dffe494a95d9c500f8e2]
class X--><g id="elem_X"><rect fill="#F1F1F1" height="48" id="X" rx="2.5" ry="2.5" style="stroke:#181818;stroke-width:0.5;" width="40" x="7" y="896"/><ellipse cx="22" cy="912" fill="#ADD1B2" rx="11" ry="11" style="stroke:#181818;stroke-width:1.0;"/><path d="M24.7656,907.875 Q24.9219,907.6563 25.1094,907.5469 Q25.2969,907.4375 25.5156,907.4375 Q25.8906,907.4375 26.125,907.7031 Q26.3594,907.9531 26.3594,908.5625 L26.3594,910.0156 Q26.3594,910.625 26.125,910.8906 Q25.8906,911.1563 25.5156,911.1563 Q25.1719,911.1563 24.9688,910.9531 Q24.7656,910.7656 24.6563,910.25 Q24.6094,909.8906 24.4219,909.7031 Q24.0938,909.3281 23.4844,909.1094 Q22.875,908.8906 22.25,908.8906 Q21.4844,908.8906 20.8438,909.2188 Q20.2188,909.5469 19.7188,910.2969 Q19.2344,911.0469 19.2344,912.0781 L19.2344,913.1719 Q19.2344,914.4063 20.125,915.2344 Q21.0156,916.0469 22.6094,916.0469 Q23.5469,916.0469 24.2031,915.7969 Q24.5938,915.6406 25.0156,915.2031 Q25.2813,914.9375 25.4219,914.8594 Q25.5781,914.7813 25.7813,914.7813 Q26.1094,914.7813 26.3594,915.0469 Q26.625,915.2969 26.625,915.6406 Q26.625,915.9844 26.2813,916.3906 Q25.7813,916.9688 24.9844,917.2969 Q23.9063,917.75 22.6094,917.75 Q21.0938,917.75 19.8906,917.125 Q18.9063,916.625 18.2188,915.5625 Q17.5313,914.4844 17.5313,913.2031 L17.5313,912.0469 Q17.5313,910.7188 18.1406,909.5781 Q18.7656,908.4219 19.8594,907.8125 Q20.9531,907.1875 22.1875,907.1875 Q22.9219,907.1875 23.5625,907.3594 Q24.2188,907.5156 24.7656,907.875 Z " fill="#000000"/><text fill="#000000" font-family="sans-serif" font-size="14" lengthAdjust="spacing" textLength="8" x="36" y="917.7285">X</text><line style="stroke:#181818;stroke-width:0.5;" x1="8" x2="46" y1="928" y2="928"/><line style="stroke:#181818;stroke-width:0.5;" x1="8" x2="46" y1="936" y2="936"/></g><!--MD5=[255014859fcd18787a2ae9f2a405ae60]
class O--><g id="elem_O"><rect fill="#F1F1F1" height="48" id="O" rx="2.5" ry="2.5" style="stroke:#181818;stroke-width:0.5;" width="43" x="82.5" y="896"/><ellipse cx="97.5" cy="912" fill="#ADD1B2" rx="11" ry="11" style="stroke:#181818;stroke-width:1.0;"/><path d="M100.2656,907.875 Q100.4219,907.6563 100.6094,907.5469 Q100.7969,907.4375 101.0156,907.4375 Q101.3906,907.4375 101.625,907.7031 Q101.8594,907.9531 101.8594,908.5625 L101.8594,910.0156 Q101.8594,910.625 101.625,910.8906 Q101.3906,911.1563 101.0156,911.1563 Q100.6719,911.1563 100.4688,910.9531 Q100.2656,910.7656 100.1563,910.25 Q100.1094,909.8906 99.9219,909.7031 Q99.5938,909.3281 98.9844,909.1094 Q98.375,908.8906 97.75,908.8906 Q96.9844,908.8906 96.3438,909.2188 Q95.7188,909.5469 95.2188,910.2969 Q94.7344,911.0469 94.7344,912.0781 L94.7344,913.1719 Q94.7344,914.4063 95.625,915.2344 Q96.5156,916.0469 98.1094,916.0469 Q99.0469,916.0469 99.7031,915.7969 Q100.0938,915.6406 100.5156,915.2031 Q100.7813,914.9375 100.9219,914.8594 Q101.0781,914.7813 101.2813,914.7813 Q101.6094,914.7813 101.8594,915.0469 Q102.125,915.2969 102.125,915.6406 Q102.125,915.9844 101.7813,916.3906 Q101.2813,916.9688 100.4844,917.2969 Q99.4063,917.75 98.1094,917.75 Q96.5938,917.75 95.3906,917.125 Q94.4063,916.625 93.7188,915.5625 Q93.0313,914.4844 93.0313,913.2031 L93.0313,912.0469 Q93.0313,910.7188 93.6406,909.5781 Q94.2656,908.4219 95.3594,907.8125 Q96.4531,907.1875 97.6875,907.1875 Q98.4219,907.1875 99.0625,907.3594 Q99.7188,907.5156 100.2656,907.875 Z " fill="#000000"/><text fill="#000000" font-family="sans-serif" font-size="14" lengthAdjust="spacing" textLength="11" x="111.5" y="917.7285">O</text><line style="stroke:#181818;stroke-width:0.5;" x1="83.5" x2="124.5" y1="928" y2="928"/><line style="stroke:#181818;stroke-width:0.5;" x1="83.5" x2="124.5" y1="936" y2="936"/></g><!--MD5=[5655ee3e2a0d028d03fe20f829576392]
class Square--><g id="elem_Square"><rect fill="#F1F1F1" height="48" id="Square" rx="2.5" ry="2.5" style="stroke:#181818;stroke-width:0.5;" width="78" x="931" y="569"/><ellipse cx="946" cy="585" fill="#ADD1B2" rx="11" ry="11" style="stroke:#181818;stroke-width:1.0;"/><path d="M948.7656,580.875 Q948.9219,580.6563 949.1094,580.5469 Q949.2969,580.4375 949.5156,580.4375 Q949.8906,580.4375 950.125,580.7031 Q950.3594,580.9531 950.3594,581.5625 L950.3594,583.0156 Q950.3594,583.625 950.125,583.8906 Q949.8906,584.1563 949.5156,584.1563 Q949.1719,584.1563 948.9688,583.9531 Q948.7656,583.7656 948.6563,583.25 Q948.6094,582.8906 948.4219,582.7031 Q948.0938,582.3281 947.4844,582.1094 Q946.875,581.8906 946.25,581.8906 Q945.4844,581.8906 944.8438,582.2188 Q944.2188,582.5469 943.7188,583.2969 Q943.2344,584.0469 943.2344,585.0781 L943.2344,586.1719 Q943.2344,587.4063 944.125,588.2344 Q945.0156,589.0469 946.6094,589.0469 Q947.5469,589.0469 948.2031,588.7969 Q948.5938,588.6406 949.0156,588.2031 Q949.2813,587.9375 949.4219,587.8594 Q949.5781,587.7813 949.7813,587.7813 Q950.1094,587.7813 950.3594,588.0469 Q950.625,588.2969 950.625,588.6406 Q950.625,588.9844 950.2813,589.3906 Q949.7813,589.9688 948.9844,590.2969 Q947.9063,590.75 946.6094,590.75 Q945.0938,590.75 943.8906,590.125 Q942.9063,589.625 942.2188,588.5625 Q941.5313,587.4844 941.5313,586.2031 L941.5313,585.0469 Q941.5313,583.7188 942.1406,582.5781 Q942.7656,581.4219 943.8594,580.8125 Q944.9531,580.1875 946.1875,580.1875 Q946.9219,580.1875 947.5625,580.3594 Q948.2188,580.5156 948.7656,580.875 Z " fill="#000000"/><text fill="#000000" font-family="sans-serif" font-size="14" lengthAdjust="spacing" textLength="46" x="960" y="590.7285">Square</text><line style="stroke:#181818;stroke-width:0.5;" x1="932" x2="1008" y1="601" y2="601"/><line style="stroke:#181818;stroke-width:0.5;" x1="932" x2="1008" y1="609" y2="609"/></g><!--MD5=[8c7d7abc12e214c3cc12c9ab70edee11]
class Coordinate--><g id="elem_Coordinate"><rect fill="#F1F1F1" height="48" id="Coordinate" rx="2.5" ry="2.5" style="stroke:#181818;stroke-width:0.5;" width="102" x="919" y="678"/><ellipse cx="934" cy="694" fill="#ADD1B2" rx="11" ry="11" style="stroke:#181818;stroke-width:1.0;"/><path d="M936.7656,689.875 Q936.9219,689.6563 937.1094,689.5469 Q937.2969,689.4375 937.5156,689.4375 Q937.8906,689.4375 938.125,689.7031 Q938.3594,689.9531 938.3594,690.5625 L938.3594,692.0156 Q938.3594,692.625 938.125,692.8906 Q937.8906,693.1563 937.5156,693.1563 Q937.1719,693.1563 936.9688,692.9531 Q936.7656,692.7656 936.6563,692.25 Q936.6094,691.8906 936.4219,691.7031 Q936.0938,691.3281 935.4844,691.1094 Q934.875,690.8906 934.25,690.8906 Q933.4844,690.8906 932.8438,691.2188 Q932.2188,691.5469 931.7188,692.2969 Q931.2344,693.0469 931.2344,694.0781 L931.2344,695.1719 Q931.2344,696.4063 932.125,697.2344 Q933.0156,698.0469 934.6094,698.0469 Q935.5469,698.0469 936.2031,697.7969 Q936.5938,697.6406 937.0156,697.2031 Q937.2813,696.9375 937.4219,696.8594 Q937.5781,696.7813 937.7813,696.7813 Q938.1094,696.7813 938.3594,697.0469 Q938.625,697.2969 938.625,697.6406 Q938.625,697.9844 938.2813,698.3906 Q937.7813,698.9688 936.9844,699.2969 Q935.9063,699.75 934.6094,699.75 Q933.0938,699.75 931.8906,699.125 Q930.9063,698.625 930.2188,697.5625 Q929.5313,696.4844 929.5313,695.2031 L929.5313,694.0469 Q929.5313,692.7188 930.1406,691.5781 Q930.7656,690.4219 931.8594,689.8125 Q932.9531,689.1875 934.1875,689.1875 Q934.9219,689.1875 935.5625,689.3594 Q936.2188,689.5156 936.7656,689.875 Z " fill="#000000"/><text fill="#000000" font-family="sans-serif" font-size="14" lengthAdjust="spacing" textLength="70" x="948" y="699.7285">Coordinate</text><line style="stroke:#181818;stroke-width:0.5;" x1="920" x2="1020" y1="710" y2="710"/><line style="stroke:#181818;stroke-width:0.5;" x1="920" x2="1020" y1="718" y2="718"/></g><!--MD5=[05aedcff764caeeb5d443618a4d90de7]
class Row--><g id="elem_Row"><rect fill="#F1F1F1" height="48" id="Row" rx="2.5" ry="2.5" style="stroke:#181818;stroke-width:0.5;" width="59" x="343.5" y="443"/><ellipse cx="358.5" cy="459" fill="#ADD1B2" rx="11" ry="11" style="stroke:#181818;stroke-width:1.0;"/><path d="M361.2656,454.875 Q361.4219,454.6563 361.6094,454.5469 Q361.7969,454.4375 362.0156,454.4375 Q362.3906,454.4375 362.625,454.7031 Q362.8594,454.9531 362.8594,455.5625 L362.8594,457.0156 Q362.8594,457.625 362.625,457.8906 Q362.3906,458.1563 362.0156,458.1563 Q361.6719,458.1563 361.4688,457.9531 Q361.2656,457.7656 361.1563,457.25 Q361.1094,456.8906 360.9219,456.7031 Q360.5938,456.3281 359.9844,456.1094 Q359.375,455.8906 358.75,455.8906 Q357.9844,455.8906 357.3438,456.2188 Q356.7188,456.5469 356.2188,457.2969 Q355.7344,458.0469 355.7344,459.0781 L355.7344,460.1719 Q355.7344,461.4063 356.625,462.2344 Q357.5156,463.0469 359.1094,463.0469 Q360.0469,463.0469 360.7031,462.7969 Q361.0938,462.6406 361.5156,462.2031 Q361.7813,461.9375 361.9219,461.8594 Q362.0781,461.7813 362.2813,461.7813 Q362.6094,461.7813 362.8594,462.0469 Q363.125,462.2969 363.125,462.6406 Q363.125,462.9844 362.7813,463.3906 Q362.2813,463.9688 361.4844,464.2969 Q360.4063,464.75 359.1094,464.75 Q357.5938,464.75 356.3906,464.125 Q355.4063,463.625 354.7188,462.5625 Q354.0313,461.4844 354.0313,460.2031 L354.0313,459.0469 Q354.0313,457.7188 354.6406,456.5781 Q355.2656,455.4219 356.3594,454.8125 Q357.4531,454.1875 358.6875,454.1875 Q359.4219,454.1875 360.0625,454.3594 Q360.7188,454.5156 361.2656,454.875 Z " fill="#000000"/><text fill="#000000" font-family="sans-serif" font-size="14" lengthAdjust="spacing" textLength="27" x="372.5" y="464.7285">Row</text><line style="stroke:#181818;stroke-width:0.5;" x1="344.5" x2="401.5" y1="475" y2="475"/><line style="stroke:#181818;stroke-width:0.5;" x1="344.5" x2="401.5" y1="483" y2="483"/></g><!--MD5=[e06ef809dd6be8ce79b58fe0a1161eb8]
class Column--><g id="elem_Column"><rect fill="#F1F1F1" height="48" id="Column" rx="2.5" ry="2.5" style="stroke:#181818;stroke-width:0.5;" width="80" x="438" y="443"/><ellipse cx="453" cy="459" fill="#ADD1B2" rx="11" ry="11" style="stroke:#181818;stroke-width:1.0;"/><path d="M455.7656,454.875 Q455.9219,454.6563 456.1094,454.5469 Q456.2969,454.4375 456.5156,454.4375 Q456.8906,454.4375 457.125,454.7031 Q457.3594,454.9531 457.3594,455.5625 L457.3594,457.0156 Q457.3594,457.625 457.125,457.8906 Q456.8906,458.1563 456.5156,458.1563 Q456.1719,458.1563 455.9688,457.9531 Q455.7656,457.7656 455.6563,457.25 Q455.6094,456.8906 455.4219,456.7031 Q455.0938,456.3281 454.4844,456.1094 Q453.875,455.8906 453.25,455.8906 Q452.4844,455.8906 451.8438,456.2188 Q451.2188,456.5469 450.7188,457.2969 Q450.2344,458.0469 450.2344,459.0781 L450.2344,460.1719 Q450.2344,461.4063 451.125,462.2344 Q452.0156,463.0469 453.6094,463.0469 Q454.5469,463.0469 455.2031,462.7969 Q455.5938,462.6406 456.0156,462.2031 Q456.2813,461.9375 456.4219,461.8594 Q456.5781,461.7813 456.7813,461.7813 Q457.1094,461.7813 457.3594,462.0469 Q457.625,462.2969 457.625,462.6406 Q457.625,462.9844 457.2813,463.3906 Q456.7813,463.9688 455.9844,464.2969 Q454.9063,464.75 453.6094,464.75 Q452.0938,464.75 450.8906,464.125 Q449.9063,463.625 449.2188,462.5625 Q448.5313,461.4844 448.5313,460.2031 L448.5313,459.0469 Q448.5313,457.7188 449.1406,456.5781 Q449.7656,455.4219 450.8594,454.8125 Q451.9531,454.1875 453.1875,454.1875 Q453.9219,454.1875 454.5625,454.3594 Q455.2188,454.5156 455.7656,454.875 Z " fill="#000000"/><text fill="#000000" font-family="sans-serif" font-size="14" lengthAdjust="spacing" textLength="48" x="467" y="464.7285">Column</text><line style="stroke:#181818;stroke-width:0.5;" x1="439" x2="517" y1="475" y2="475"/><line style="stroke:#181818;stroke-width:0.5;" x1="439" x2="517" y1="483" y2="483"/></g><!--MD5=[2dff8a3d4bbb6c59757151578181d35d]
class MainDiagonal--><g id="elem_MainDiagonal"><rect fill="#F1F1F1" height="48" id="MainDiagonal" rx="2.5" ry="2.5" style="stroke:#181818;stroke-width:0.5;" width="118" x="553" y="443"/><ellipse cx="568" cy="459" fill="#ADD1B2" rx="11" ry="11" style="stroke:#181818;stroke-width:1.0;"/><path d="M570.7656,454.875 Q570.9219,454.6563 571.1094,454.5469 Q571.2969,454.4375 571.5156,454.4375 Q571.8906,454.4375 572.125,454.7031 Q572.3594,454.9531 572.3594,455.5625 L572.3594,457.0156 Q572.3594,457.625 572.125,457.8906 Q571.8906,458.1563 571.5156,458.1563 Q571.1719,458.1563 570.9688,457.9531 Q570.7656,457.7656 570.6563,457.25 Q570.6094,456.8906 570.4219,456.7031 Q570.0938,456.3281 569.4844,456.1094 Q568.875,455.8906 568.25,455.8906 Q567.4844,455.8906 566.8438,456.2188 Q566.2188,456.5469 565.7188,457.2969 Q565.2344,458.0469 565.2344,459.0781 L565.2344,460.1719 Q565.2344,461.4063 566.125,462.2344 Q567.0156,463.0469 568.6094,463.0469 Q569.5469,463.0469 570.2031,462.7969 Q570.5938,462.6406 571.0156,462.2031 Q571.2813,461.9375 571.4219,461.8594 Q571.5781,461.7813 571.7813,461.7813 Q572.1094,461.7813 572.3594,462.0469 Q572.625,462.2969 572.625,462.6406 Q572.625,462.9844 572.2813,463.3906 Q571.7813,463.9688 570.9844,464.2969 Q569.9063,464.75 568.6094,464.75 Q567.0938,464.75 565.8906,464.125 Q564.9063,463.625 564.2188,462.5625 Q563.5313,461.4844 563.5313,460.2031 L563.5313,459.0469 Q563.5313,457.7188 564.1406,456.5781 Q564.7656,455.4219 565.8594,454.8125 Q566.9531,454.1875 568.1875,454.1875 Q568.9219,454.1875 569.5625,454.3594 Q570.2188,454.5156 570.7656,454.875 Z " fill="#000000"/><text fill="#000000" font-family="sans-serif" font-size="14" lengthAdjust="spacing" textLength="86" x="582" y="464.7285">MainDiagonal</text><line style="stroke:#181818;stroke-width:0.5;" x1="554" x2="670" y1="475" y2="475"/><line style="stroke:#181818;stroke-width:0.5;" x1="554" x2="670" y1="483" y2="483"/></g><!--MD5=[0f6df31fde49cef09278e2483512ca7d]
class InvertedDiagonal--><g id="elem_InvertedDiagonal"><rect fill="#F1F1F1" height="48" id="InvertedDiagonal" rx="2.5" ry="2.5" style="stroke:#181818;stroke-width:0.5;" width="139" x="169.5" y="443"/><ellipse cx="184.5" cy="459" fill="#ADD1B2" rx="11" ry="11" style="stroke:#181818;stroke-width:1.0;"/><path d="M187.2656,454.875 Q187.4219,454.6563 187.6094,454.5469 Q187.7969,454.4375 188.0156,454.4375 Q188.3906,454.4375 188.625,454.7031 Q188.8594,454.9531 188.8594,455.5625 L188.8594,457.0156 Q188.8594,457.625 188.625,457.8906 Q188.3906,458.1563 188.0156,458.1563 Q187.6719,458.1563 187.4688,457.9531 Q187.2656,457.7656 187.1563,457.25 Q187.1094,456.8906 186.9219,456.7031 Q186.5938,456.3281 185.9844,456.1094 Q185.375,455.8906 184.75,455.8906 Q183.9844,455.8906 183.3438,456.2188 Q182.7188,456.5469 182.2188,457.2969 Q181.7344,458.0469 181.7344,459.0781 L181.7344,460.1719 Q181.7344,461.4063 182.625,462.2344 Q183.5156,463.0469 185.1094,463.0469 Q186.0469,463.0469 186.7031,462.7969 Q187.0938,462.6406 187.5156,462.2031 Q187.7813,461.9375 187.9219,461.8594 Q188.0781,461.7813 188.2813,461.7813 Q188.6094,461.7813 188.8594,462.0469 Q189.125,462.2969 189.125,462.6406 Q189.125,462.9844 188.7813,463.3906 Q188.2813,463.9688 187.4844,464.2969 Q186.4063,464.75 185.1094,464.75 Q183.5938,464.75 182.3906,464.125 Q181.4063,463.625 180.7188,462.5625 Q180.0313,461.4844 180.0313,460.2031 L180.0313,459.0469 Q180.0313,457.7188 180.6406,456.5781 Q181.2656,455.4219 182.3594,454.8125 Q183.4531,454.1875 184.6875,454.1875 Q185.4219,454.1875 186.0625,454.3594 Q186.7188,454.5156 187.2656,454.875 Z " fill="#000000"/><text fill="#000000" font-family="sans-serif" font-size="14" lengthAdjust="spacing" textLength="107" x="198.5" y="464.7285">InvertedDiagonal</text><line style="stroke:#181818;stroke-width:0.5;" x1="170.5" x2="307.5" y1="475" y2="475"/><line style="stroke:#181818;stroke-width:0.5;" x1="170.5" x2="307.5" y1="483" y2="483"/></g><!--MD5=[434cd2fe8549537c128785c8ce0a3fa2]
link TicTacToe to Player--><g id="link_TicTacToe_Player"><path codeLine="2" d="M673.8851,65.1677 C673.8851,65.1677 654.1,98.9 647,116 C633.99,147.32 624.59,184.86 618.83,211.89 " fill="none" id="TicTacToe-Player" style="stroke:#181818;stroke-width:1.0;"/><polygon fill="#181818" points="616.15,224.97,621.8771,216.9575,617.1549,220.072,614.0404,215.3497,616.15,224.97" style="stroke:#181818;stroke-width:1.0;"/><line style="stroke:#181818;stroke-width:1.0;" x1="617.1549" x2="618.76" y1="220.072" y2="212.235"/><polygon fill="#181818" points="680.29,55.02,673.7049,57.9589,673.8851,65.1677,680.4701,62.2289,680.29,55.02" style="stroke:#181818;stroke-width:1.0;"/><text fill="#000000" font-family="sans-serif" font-size="13" lengthAdjust="spacing" textLength="7" x="609.3166" y="214.3025">2</text></g><!--MD5=[a737d2231371e146ba098899a67f3b67]
link TicTacToe to Board--><g id="link_TicTacToe_Board"><path codeLine="3" d="M724.963,64.0066 C724.963,64.0066 903.86,261.77 960.22,324.08 " fill="none" id="TicTacToe-Board" style="stroke:#181818;stroke-width:1.0;"/><polygon fill="#181818" points="969,333.79,965.9188,324.4355,965.6418,330.0856,959.9918,329.8086,969,333.79" style="stroke:#181818;stroke-width:1.0;"/><line style="stroke:#181818;stroke-width:1.0;" x1="965.6418" x2="960.28" y1="330.0856" y2="324.145"/><polygon fill="#181818" points="716.91,55.11,717.971,62.2426,724.963,64.0066,723.902,56.8739,716.91,55.11" style="stroke:#181818;stroke-width:1.0;"/></g><!--MD5=[02ea7f29950e23bda8c82d72bcbd4b5e]
link TicTacToe to Turn--><g id="link_TicTacToe_Turn"><path codeLine="4" d="M696,67.22 C696,67.22 696,91.5 696,102.56 " fill="none" id="TicTacToe-Turn" style="stroke:#181818;stroke-width:1.0;"/><polygon fill="#181818" points="696,115.83,700,106.83,696,110.83,692,106.83,696,115.83" style="stroke:#181818;stroke-width:1.0;"/><line style="stroke:#181818;stroke-width:1.0;" x1="696" x2="696" y1="110.83" y2="102.83"/><polygon fill="#181818" points="696,55.22,692,61.22,696,67.22,700,61.22,696,55.22" style="stroke:#181818;stroke-width:1.0;"/></g><!--MD5=[d81713d91ad05be3b975338c4816ee0b]
link Turn to Player--><g id="link_Turn_Player"><path codeLine="6" d="M677.77,164.22 C664.78,180.76 647.27,203.07 633.58,220.51 " fill="none" id="Turn-to-Player" style="stroke:#181818;stroke-width:1.0;"/><polygon fill="#181818" points="630.19,224.83,638.8971,220.2272,633.2804,220.8994,632.6082,215.2826,630.19,224.83" style="stroke:#181818;stroke-width:1.0;"/><text fill="#000000" font-family="sans-serif" font-size="13" lengthAdjust="spacing" textLength="7" x="626.9543" y="214.1266">2</text></g><!--MD5=[c1f7e88598f78d9459764ed93737eb14]
link Player to Board--><g id="link_Player_Board"><path codeLine="8" d="M648.13,257.4 C708.7,270.23 834.22,298.66 937,334 C941.32,335.49 945.78,337.17 950.19,338.94 " fill="none" id="Player-to-Board" style="stroke:#181818;stroke-width:1.0;"/><polygon fill="#181818" points="954.95,340.88,948.1244,333.78,950.3195,338.9935,945.106,341.1887,954.95,340.88" style="stroke:#181818;stroke-width:1.0;"/></g><!--MD5=[3ada97fffb5bcc4da390db27b64fa26e]
link Player to Piece--><g id="link_Player_Piece"><path codeLine="9" d="M563.931,250.2482 C563.931,250.2482 116,266.25 116,357 C116,357 116,357 116,594 C116,679.96 419.24,696.86 538.06,700.19 " fill="none" id="Player-Piece" style="stroke:#181818;stroke-width:1.0;"/><polygon fill="#181818" points="551.27,700.52,542.3739,696.2939,546.2716,700.3937,542.1718,704.2913,551.27,700.52" style="stroke:#181818;stroke-width:1.0;"/><line style="stroke:#181818;stroke-width:1.0;" x1="546.2716" x2="538.275" y1="700.3937" y2="700.19"/><polygon fill="none" points="575.93,250.09,569.8778,246.1695,563.931,250.2482,569.9833,254.1688,575.93,250.09" style="stroke:#181818;stroke-width:1.0;"/><text fill="#000000" font-family="sans-serif" font-size="13" lengthAdjust="spacing" textLength="22" x="521.582" y="696.416">0..3</text></g><!--MD5=[1571e4e0b7cdbae74b04c97a95677c54]
link Player to Goal--><g id="link_Player_Goal"><path codeLine="10" d="M612,285.22 C612,285.22 612,309.5 612,320.56 " fill="none" id="Player-Goal" style="stroke:#181818;stroke-width:1.0;"/><polygon fill="#181818" points="612,333.83,616,324.83,612,328.83,608,324.83,612,333.83" style="stroke:#181818;stroke-width:1.0;"/><line style="stroke:#181818;stroke-width:1.0;" x1="612" x2="612" y1="328.83" y2="320.83"/><polygon fill="none" points="612,273.22,608,279.22,612,285.22,616,279.22,612,273.22" style="stroke:#181818;stroke-width:1.0;"/></g><!--MD5=[ebf52a6f230ff8b0d594dd9ce4cd7c5b]
link Player to Color--><g id="link_Player_Color"><path codeLine="11" d="M563.8926,250.4705 C563.8926,250.4705 301,261.72 158,303 C104.52,318.44 45,301.34 45,357 C45,357 45,357 45,703 C45,727.03 49.93,753.58 54.9,774.23 " fill="none" id="Player-Color" style="stroke:#181818;stroke-width:1.0;"/><polygon fill="#181818" points="58.12,786.86,59.7712,777.1505,56.8841,782.0152,52.0195,779.128,58.12,786.86" style="stroke:#181818;stroke-width:1.0;"/><line style="stroke:#181818;stroke-width:1.0;" x1="56.8841" x2="54.91" y1="782.0152" y2="774.255"/><polygon fill="#181818" points="575.89,250.22,569.8078,246.3461,563.8926,250.4705,569.9748,254.3444,575.89,250.22" style="stroke:#181818;stroke-width:1.0;"/></g><!--MD5=[0fd805d603401fe9f720e4f7e914a092]
reverse link Action to Put--><g id="link_Action_Put"><path codeLine="14" d="M854.34,398.67 C843.22,413.54 830.96,429.94 821.32,442.83 " fill="none" id="Action-backto-Put" style="stroke:#181818;stroke-width:1.0;"/><polygon fill="none" points="849.06,394.04,866.64,382.22,860.27,402.43,849.06,394.04" style="stroke:#181818;stroke-width:1.0;"/></g><!--MD5=[41de15b107b23d1b7c92311761b50ccb]
reverse link Action to Move--><g id="link_Action_Move"><path codeLine="15" d="M915.49,398.18 C927.55,413.18 940.9,429.8 951.38,442.83 " fill="none" id="Action-backto-Move" style="stroke:#181818;stroke-width:1.0;"/><polygon fill="none" points="909.73,402.19,902.66,382.22,920.65,393.42,909.73,402.19" style="stroke:#181818;stroke-width:1.0;"/></g><!--MD5=[2f378bb2f56593d68624f1790be1dbac]
link Piece to Color--><g id="link_Piece_Color"><path codeLine="17" d="M539.528,712.3669 C539.528,712.3669 209.96,780.17 111.33,800.47 " fill="none" id="Piece-Color" style="stroke:#181818;stroke-width:1.0;"/><polygon fill="#181818" points="98.31,803.15,107.933,805.2472,103.2067,802.1388,106.3151,797.4125,98.31,803.15" style="stroke:#181818;stroke-width:1.0;"/><line style="stroke:#181818;stroke-width:1.0;" x1="103.2067" x2="111.04" y1="802.1388" y2="800.525"/><polygon fill="#181818" points="551.28,709.94,544.595,707.2361,539.528,712.3669,546.213,715.0708,551.28,709.94" style="stroke:#181818;stroke-width:1.0;"/></g><!--MD5=[cadd997a6c0d1b409cb2c707bfea899e]
reverse link Color to X--><g id="link_Color_X"><path codeLine="19" d="M50.05,854.1 C45,868.31 39.56,883.64 35.23,895.83 " fill="none" id="Color-backto-X" style="stroke:#181818;stroke-width:1.0;"/><polygon fill="none" points="43.46,851.72,56.75,835.22,56.66,856.41,43.46,851.72" style="stroke:#181818;stroke-width:1.0;"/></g><!--MD5=[da3122694a19f792a32b14ff12c4d304]
reverse link Color to O--><g id="link_Color_O"><path codeLine="20" d="M80.35,854.1 C85.52,868.31 91.11,883.64 95.55,895.83 " fill="none" id="Color-backto-O" style="stroke:#181818;stroke-width:1.0;"/><polygon fill="none" points="73.73,856.41,73.46,835.22,86.89,851.61,73.73,856.41" style="stroke:#181818;stroke-width:1.0;"/></g><!--MD5=[de88a6c8dfa24fcf27ee3e8ebe03a649]
link Goal to Put--><g id="link_Goal_Put"><path codeLine="22" d="M643.26,369.1 C669.75,378.34 708.24,393.38 739,412 C751.85,419.78 764.83,429.98 775.77,439.42 " fill="none" id="Goal-to-Put" style="stroke:#181818;stroke-width:1.0;stroke-dasharray:7.0,7.0;"/><polygon fill="#181818" points="779.7,442.85,775.5608,433.9132,775.9371,439.5575,770.2928,439.9338,779.7,442.85" style="stroke:#181818;stroke-width:1.0;"/><text fill="#000000" font-family="sans-serif" font-size="13" lengthAdjust="spacing" textLength="7" x="765.5763" y="432.1517">3</text></g><!--MD5=[4b1f7a9ffece4d2d0cb1da7affd14ba5]
link Goal to Move--><g id="link_Goal_Move"><path codeLine="23" d="M643.14,368.31 C708.68,387.9 860.65,433.32 931.88,454.61 " fill="none" id="Goal-to-Move" style="stroke:#181818;stroke-width:1.0;stroke-dasharray:7.0,7.0;"/><polygon fill="#181818" points="936.86,456.1,929.3802,449.6928,932.0689,454.6698,927.0919,457.3586,936.86,456.1" style="stroke:#181818;stroke-width:1.0;"/><text fill="#000000" font-family="sans-serif" font-size="13" lengthAdjust="spacing" textLength="5" x="924.0638" y="449.4992">*</text></g><!--MD5=[15df82f68831714e43f722f58194f411]
link Goal to Square--><g id="link_Goal_Square"><path codeLine="24" d="M633.92,382.19 C661.44,410.41 711.02,458.33 760,491 C813.74,526.85 882.14,557.27 926.01,575.09 " fill="none" id="Goal-to-Square" style="stroke:#181818;stroke-width:1.0;stroke-dasharray:7.0,7.0;"/><polygon fill="#181818" points="930.7,576.99,923.848,569.9154,926.0626,575.1208,920.8572,577.3353,930.7,576.99" style="stroke:#181818;stroke-width:1.0;"/><text fill="#000000" font-family="sans-serif" font-size="13" lengthAdjust="spacing" textLength="7" x="916.0763" y="570.2396">3</text></g><!--MD5=[4ad96441c8a01d959d4bf4f2a5e1a798]
link Board to Square--><g id="link_Board_Square"><path codeLine="26" d="M1036.4086,374.1833 C1036.4086,374.1833 1081.63,395.46 1099,412 C1125.01,436.77 1122.08,455.6 1116,491 C1112.17,513.3 1114.6,522.61 1099,539 C1078.58,560.46 1048.22,573.51 1022.08,581.29 " fill="none" id="Board-Square" style="stroke:#181818;stroke-width:1.0;"/><polygon fill="#181818" points="1009.26,584.8,1018.9966,586.2825,1014.0827,583.4802,1016.885,578.5663,1009.26,584.8" style="stroke:#181818;stroke-width:1.0;"/><line style="stroke:#181818;stroke-width:1.0;" x1="1014.0827" x2="1021.8" y1="583.4802" y2="581.365"/><polygon fill="#181818" points="1025.23,369.82,1029.3649,375.7279,1036.4086,374.1833,1032.2738,368.2755,1025.23,369.82" style="stroke:#181818;stroke-width:1.0;"/><text fill="#000000" font-family="sans-serif" font-size="13" lengthAdjust="spacing" textLength="21" x="1016.8795" y="579.8414">3x3</text></g><!--MD5=[d1718f8040beedd4df7f7517ac9b645a]
link Square to Coordinate--><g id="link_Square_Coordinate"><path codeLine="27" d="M970,629.22 C970,629.22 970,653.5 970,664.56 " fill="none" id="Square-Coordinate" style="stroke:#181818;stroke-width:1.0;"/><polygon fill="#181818" points="970,677.83,974,668.83,970,672.83,966,668.83,970,677.83" style="stroke:#181818;stroke-width:1.0;"/><line style="stroke:#181818;stroke-width:1.0;" x1="970" x2="970" y1="672.83" y2="664.83"/><polygon fill="#181818" points="970,617.22,966,623.22,970,629.22,974,623.22,970,617.22" style="stroke:#181818;stroke-width:1.0;"/></g><!--MD5=[f6467046f93aba88bed66e3f7374a456]
link Square to Piece--><g id="link_Square_Piece"><path codeLine="28" d="M919.4101,608.0699 C919.4101,608.0699 703.53,668.06 631.26,688.14 " fill="none" id="Square-Piece" style="stroke:#181818;stroke-width:1.0;"/><polygon fill="#181818" points="618.57,691.67,628.3128,693.1113,623.387,690.3298,626.1685,685.404,618.57,691.67" style="stroke:#181818;stroke-width:1.0;"/><line style="stroke:#181818;stroke-width:1.0;" x1="623.387" x2="631.1" y1="690.3298" y2="688.185"/><polygon fill="none" points="930.97,604.85,924.1167,602.6066,919.4101,608.0699,926.2633,610.3133,930.97,604.85" style="stroke:#181818;stroke-width:1.0;"/><text fill="#000000" font-family="sans-serif" font-size="13" lengthAdjust="spacing" textLength="22" x="626.509" y="685.9314">0..1</text></g><!--MD5=[5dd37025bd56d3ce0dc94ae780f62769]
link Action to Piece--><g id="link_Action_Piece"><path codeLine="30" d="M882.05,382.26 C878.78,410.12 870.18,457.26 848,491 C789.5,579.98 681,648.7 623.34,680.91 " fill="none" id="Action-to-Piece" style="stroke:#181818;stroke-width:1.0;stroke-dasharray:7.0,7.0;"/><polygon fill="#181818" points="618.94,683.35,628.75,682.4758,623.3108,680.9218,624.8648,675.4826,618.94,683.35" style="stroke:#181818;stroke-width:1.0;"/></g><!--MD5=[d5b732a636ecb7f30d2b5d18fc14c0cd]
link Action to Square--><g id="link_Action_Square"><path codeLine="31" d="M919.7,375.85 C956.42,394 1009.79,422.98 1021,443 C1041.96,480.43 1028.96,500.04 1011,539 C1006.85,548 1000.92,556.89 994.85,564.73 " fill="none" id="Action-to-Square" style="stroke:#181818;stroke-width:1.0;stroke-dasharray:7.0,7.0;"/><polygon fill="#181818" points="991.48,568.97,1000.2136,564.4176,994.593,565.0573,993.9533,559.4367,991.48,568.97" style="stroke:#181818;stroke-width:1.0;"/><text fill="#000000" font-family="sans-serif" font-size="13" lengthAdjust="spacing" textLength="33" x="1032" y="472.4951">target</text></g><!--MD5=[419ef2ad2139c0ed3980cc1caad2424e]
link Move to Square--><g id="link_Move_Square"><path codeLine="32" d="M970,491.03 C970,511.52 970,541.56 970,563.55 " fill="none" id="Move-to-Square" style="stroke:#181818;stroke-width:1.0;stroke-dasharray:7.0,7.0;"/><polygon fill="#181818" points="970,568.67,974,559.67,970,563.67,966,559.67,970,568.67" style="stroke:#181818;stroke-width:1.0;"/><text fill="#000000" font-family="sans-serif" font-size="13" lengthAdjust="spacing" textLength="31" x="971" y="535.4951">origin</text></g><!--MD5=[cc08ae77311d3850838d7f60cf979d27]
reverse link Goal to Row--><g id="link_Goal_Row"><path codeLine="34" d="M562.43,380 C523.51,396.65 468.04,420.75 420,443 C414.39,445.6 408.45,448.44 402.74,451.21 " fill="none" id="Goal-backto-Row" style="stroke:#181818;stroke-width:1.0;"/><polygon fill="none" points="559.75,373.53,580.89,372.13,565.24,386.41,559.75,373.53" style="stroke:#181818;stroke-width:1.0;"/></g><!--MD5=[21350569656573e18760c9f22b4a0078]
reverse link Goal to Column--><g id="link_Goal_Column"><path codeLine="35" d="M567.13,394.83 C547.31,410.66 524.57,428.82 507.02,442.83 " fill="none" id="Goal-backto-Column" style="stroke:#181818;stroke-width:1.0;"/><polygon fill="none" points="562.93,389.23,582.92,382.22,571.66,400.17,562.93,389.23" style="stroke:#181818;stroke-width:1.0;"/></g><!--MD5=[a1bc088bb2b052fba23f5b19d584ba88]
reverse link Goal to MainDiagonal--><g id="link_Goal_MainDiagonal"><path codeLine="36" d="M612,402.58 C612,416.36 612,431.06 612,442.83 " fill="none" id="Goal-backto-MainDiagonal" style="stroke:#181818;stroke-width:1.0;"/><polygon fill="none" points="605,402.22,612,382.22,619,402.22,605,402.22" style="stroke:#181818;stroke-width:1.0;"/></g><!--MD5=[29f9a0939f51e848196471c67d635130]
reverse link Goal to InvertedDiagonal--><g id="link_Goal_InvertedDiagonal"><path codeLine="37" d="M561.46,373.5 C496.16,392.23 382.15,424.94 308.66,446.02 " fill="none" id="Goal-backto-InvertedDiagonal" style="stroke:#181818;stroke-width:1.0;"/><polygon fill="none" points="559.68,366.73,580.84,367.94,563.55,380.18,559.68,366.73" style="stroke:#181818;stroke-width:1.0;"/></g><!--MD5=[2850611bd0463a37cfb7bc8cd58b16a4]
@startuml vocabulary

TicTacToe *-down-> "2" Player
TicTacToe *-down-> Board
TicTacToe *-down-> Turn

Turn -down-> "2" Player

Player -down-> Board
Player o-down-> "0..3" Piece
Player o-down-> Goal
Player *-down-> Color


Action <|-down- Put
Action <|-down- Move

Piece *-down-> Color

Color <|-down- X
Color <|-down- O

Goal ..> "3" Put
Goal ..> "*" Move
Goal ..> "3" Square

Board *-down-> "3x3" Square
Square *-down-> Coordinate
Square o-down-> "0..1" Piece

Action .down.> Piece
Action .down.> Square : target
Move .down.> Square : origin

Goal <|-down- Row
Goal <|-down- Column
Goal <|-down- MainDiagonal
Goal <|-down- InvertedDiagonal

@enduml

PlantUML version 1.2022.5(Sat Apr 30 12:55:52 CEST 2022)
(GPL source distribution)
Java Runtime: Java(TM) SE Runtime Environment
JVM: Java HotSpot(TM) 64-Bit Server VM
Default Encoding: Cp1252
Language: es
Country: ES
--></g></svg>