<?xml version="1.0" encoding="UTF-8" standalone="no"?><svg xmlns="http://www.w3.org/2000/svg" xmlns:xlink="http://www.w3.org/1999/xlink" contentScriptType="application/ecmascript" contentStyleType="text/css" height="968px" preserveAspectRatio="none" style="width:904px;height:968px;background:#FFFFFF;" version="1.1" viewBox="0 0 904 968" width="904px" zoomAndPan="magnify"><defs><filter height="300%" id="f1vo93mc0puc2p" width="300%" x="-1" y="-1"><feGaussianBlur result="blurOut" stdDeviation="2.0"/><feColorMatrix in="blurOut" result="blurOut2" type="matrix" values="0 0 0 0 0 0 0 0 0 0 0 0 0 0 0 0 0 0 .4 0"/><feOffset dx="4.0" dy="4.0" in="blurOut2" result="blurOut3"/><feBlend in="SourceGraphic" in2="blurOut3" mode="normal"/></filter></defs><g><g id="basic"><rect fill="#FEFECE" filter="url(#f1vo93mc0puc2p)" height="50" rx="12.5" ry="12.5" style="stroke:#A80036;stroke-width:1.5;" width="66" x="437.5" y="91.5"/><line style="stroke:#A80036;stroke-width:1.5;" x1="437.5" x2="503.5" y1="119.1094" y2="119.1094"/><text fill="#000000" font-family="sans-serif" font-size="14" lengthAdjust="spacing" textLength="46" x="447.5" y="111.0332">1-basic</text></g><g id="machine"><rect fill="#FEFECE" filter="url(#f1vo93mc0puc2p)" height="50" rx="12.5" ry="12.5" style="stroke:#A80036;stroke-width:1.5;" width="86" x="364.5" y="244.5"/><line style="stroke:#A80036;stroke-width:1.5;" x1="364.5" x2="450.5" y1="272.1094" y2="272.1094"/><text fill="#000000" font-family="sans-serif" font-size="14" lengthAdjust="spacing" textLength="66" x="374.5" y="264.0332">2-machine</text></g><g id="graphics"><rect fill="#FEFECE" filter="url(#f1vo93mc0puc2p)" height="50" rx="12.5" ry="12.5" style="stroke:#A80036;stroke-width:1.5;" width="87" x="491" y="244.5"/><line style="stroke:#A80036;stroke-width:1.5;" x1="491" x2="578" y1="272.1094" y2="272.1094"/><text fill="#000000" font-family="sans-serif" font-size="14" lengthAdjust="spacing" textLength="67" x="501" y="264.0332">3-graphics</text></g><g id="undoRedo"><rect fill="#FEFECE" filter="url(#f1vo93mc0puc2p)" height="50" rx="12.5" ry="12.5" style="stroke:#A80036;stroke-width:1.5;" width="99" x="485" y="393"/><line style="stroke:#A80036;stroke-width:1.5;" x1="485" x2="584" y1="420.6094" y2="420.6094"/><text fill="#000000" font-family="sans-serif" font-size="14" lengthAdjust="spacing" textLength="79" x="495" y="412.5332">4-undoRedo</text></g><g id="distributed"><rect fill="#FEFECE" filter="url(#f1vo93mc0puc2p)" height="50" rx="12.5" ry="12.5" style="stroke:#A80036;stroke-width:1.5;" width="99" x="485" y="537"/><line style="stroke:#A80036;stroke-width:1.5;" x1="485" x2="584" y1="564.6094" y2="564.6094"/><text fill="#000000" font-family="sans-serif" font-size="14" lengthAdjust="spacing" textLength="79" x="495" y="556.5332">5-distributed</text></g><g id="files"><rect fill="#FEFECE" filter="url(#f1vo93mc0puc2p)" height="50" rx="12.5" ry="12.5" style="stroke:#A80036;stroke-width:1.5;" width="58" x="505.5" y="681"/><line style="stroke:#A80036;stroke-width:1.5;" x1="505.5" x2="563.5" y1="708.6094" y2="708.6094"/><text fill="#000000" font-family="sans-serif" font-size="14" lengthAdjust="spacing" textLength="38" x="515.5" y="700.5332">6-files</text></g><g id="dataBase"><rect fill="#FEFECE" filter="url(#f1vo93mc0puc2p)" height="50" rx="12.5" ry="12.5" style="stroke:#A80036;stroke-width:1.5;" width="93" x="488" y="825"/><line style="stroke:#A80036;stroke-width:1.5;" x1="488" x2="581" y1="852.6094" y2="852.6094"/><text fill="#000000" font-family="sans-serif" font-size="14" lengthAdjust="spacing" textLength="73" x="498" y="844.5332">7-dataBase</text></g><ellipse cx="470.5" cy="16" fill="#000000" filter="url(#f1vo93mc0puc2p)" rx="10" ry="10" style="stroke:none;stroke-width:1.0;"/><ellipse cx="534.5" cy="946" filter="url(#f1vo93mc0puc2p)" rx="10" ry="10" style="stroke:#000000;stroke-width:1.0;fill:none;"/><ellipse cx="535" cy="946.5" fill="#000000" rx="6" ry="6" style="stroke:none;stroke-width:1.0;"/><path d="M538.5,87 L538.5,112.5 L503.78,116.5 L538.5,120.5 L538.5,146.0547 A0,0 0 0 0 538.5,146.0547 L828.5,146.0547 A0,0 0 0 0 828.5,146.0547 L828.5,97 L818.5,87 L538.5,87 A0,0 0 0 0 538.5,87 " fill="#15D2F3" filter="url(#f1vo93mc0puc2p)" style="stroke:#A80036;stroke-width:1.0;"/><path d="M818.5,87 L818.5,97 L828.5,97 L818.5,87 " fill="#15D2F3" style="stroke:#A80036;stroke-width:1.0;"/><text fill="#000000" font-family="sans-serif" font-size="13" lengthAdjust="spacing" textLength="269" x="544.5" y="105.4951">Juego de las 3 en raya con interfaz de consola</text><text fill="#000000" font-family="sans-serif" font-size="13" lengthAdjust="spacing" textLength="232" x="548.5" y="121.8467">y con casos de uso para dos jugadores:</text><text fill="#000000" font-family="sans-serif" font-size="13" lengthAdjust="spacing" textLength="162" x="544.5" y="138.1982">arrancar, jugar y continuará.</text><path d="M6,240 L6,299.0547 A0,0 0 0 0 6,299.0547 L329,299.0547 A0,0 0 0 0 329,299.0547 L329,273.5 L364.38,269.5 L329,265.5 L329,250 L319,240 L6,240 A0,0 0 0 0 6,240 " fill="#15D2F3" filter="url(#f1vo93mc0puc2p)" style="stroke:#A80036;stroke-width:1.0;"/><path d="M319,240 L319,250 L329,250 L319,240 " fill="#15D2F3" style="stroke:#A80036;stroke-width:1.0;"/><text fill="#000000" font-family="sans-serif" font-size="13" lengthAdjust="spacing" textLength="269" x="12" y="258.4951">Juego de las 3 en raya con interfaz de consola</text><text fill="#000000" font-family="sans-serif" font-size="13" lengthAdjust="spacing" textLength="298" x="16" y="274.8467">y con casos de uso añadiendo un jugador máquina:</text><text fill="#000000" font-family="sans-serif" font-size="13" lengthAdjust="spacing" textLength="162" x="12" y="291.1982">arrancar, jugar y continuará.</text><path d="M613.5,256.5 L613.5,265.5 L578.27,269.5 L613.5,273.5 L613.5,282.8516 A0,0 0 0 0 613.5,282.8516 L787.5,282.8516 A0,0 0 0 0 787.5,282.8516 L787.5,266.5 L777.5,256.5 L613.5,256.5 A0,0 0 0 0 613.5,256.5 " fill="#15D2F3" filter="url(#f1vo93mc0puc2p)" style="stroke:#A80036;stroke-width:1.0;"/><path d="M777.5,256.5 L777.5,266.5 L787.5,266.5 L777.5,256.5 " fill="#15D2F3" style="stroke:#A80036;stroke-width:1.0;"/><text fill="#000000" font-family="sans-serif" font-size="13" lengthAdjust="spacing" textLength="153" x="619.5" y="274.9951">Añadiendo interfaz gráfica.</text><path d="M619,396.5 L619,414 L584.39,418 L619,422 L619,439.2031 A0,0 0 0 0 619,439.2031 L862,439.2031 A0,0 0 0 0 862,439.2031 L862,406.5 L852,396.5 L619,396.5 A0,0 0 0 0 619,396.5 " fill="#15D2F3" filter="url(#f1vo93mc0puc2p)" style="stroke:#A80036;stroke-width:1.0;"/><path d="M852,396.5 L852,406.5 L862,406.5 L852,396.5 " fill="#15D2F3" style="stroke:#A80036;stroke-width:1.0;"/><text fill="#000000" font-family="sans-serif" font-size="13" lengthAdjust="spacing" textLength="222" x="625" y="414.9951">Añadiendo funcionalidad con deshacer</text><text fill="#000000" font-family="sans-serif" font-size="13" lengthAdjust="spacing" textLength="107" x="625" y="431.3467">y rehacer jugadas.</text><path d="M619.5,549 L619.5,558 L584.06,562 L619.5,566 L619.5,575.3516 A0,0 0 0 0 619.5,575.3516 L865.5,575.3516 A0,0 0 0 0 865.5,575.3516 L865.5,559 L855.5,549 L619.5,549 A0,0 0 0 0 619.5,549 " fill="#15D2F3" filter="url(#f1vo93mc0puc2p)" style="stroke:#A80036;stroke-width:1.0;"/><path d="M855.5,549 L855.5,559 L865.5,559 L855.5,549 " fill="#15D2F3" style="stroke:#A80036;stroke-width:1.0;"/><text fill="#000000" font-family="sans-serif" font-size="13" lengthAdjust="spacing" textLength="225" x="625.5" y="567.4951">Añadiendo distribución cliente/servidor.</text><path d="M598.5,684.5 L598.5,702 L563.68,706 L598.5,710 L598.5,727.2031 A0,0 0 0 0 598.5,727.2031 L858.5,727.2031 A0,0 0 0 0 858.5,727.2031 L858.5,694.5 L848.5,684.5 L598.5,684.5 A0,0 0 0 0 598.5,684.5 " fill="#15D2F3" filter="url(#f1vo93mc0puc2p)" style="stroke:#A80036;stroke-width:1.0;"/><path d="M848.5,684.5 L848.5,694.5 L858.5,694.5 L848.5,684.5 " fill="#15D2F3" style="stroke:#A80036;stroke-width:1.0;"/><text fill="#000000" font-family="sans-serif" font-size="13" lengthAdjust="spacing" textLength="239" x="604.5" y="702.9951">Añadiendo funcionalidad con persistencia</text><text fill="#000000" font-family="sans-serif" font-size="13" lengthAdjust="spacing" textLength="45" x="604.5" y="719.3467">de files.</text><path d="M616,837 L616,846 L581.12,850 L616,854 L616,863.3516 A0,0 0 0 0 616,863.3516 L895,863.3516 A0,0 0 0 0 895,863.3516 L895,847 L885,837 L616,837 A0,0 0 0 0 616,837 " fill="#15D2F3" filter="url(#f1vo93mc0puc2p)" style="stroke:#A80036;stroke-width:1.0;"/><path d="M885,837 L885,847 L895,847 L885,837 " fill="#15D2F3" style="stroke:#A80036;stroke-width:1.0;"/><text fill="#000000" font-family="sans-serif" font-size="13" lengthAdjust="spacing" textLength="258" x="622" y="855.4951">Adaptando persistencia con bases de datos.</text><!--MD5=[be61b9528f36d1da462aff14ad4a3a63]
link *start to basic--><path d="M470.5,26.09 C470.5,39.61 470.5,65.63 470.5,86.13 " fill="none" id="*start-to-basic" style="stroke:#A80036;stroke-width:1.0;"/><polygon fill="#A80036" points="470.5,91.21,474.5,82.21,470.5,86.21,466.5,82.21,470.5,91.21" style="stroke:#A80036;stroke-width:1.0;"/><!--MD5=[24850f997031a9e3e9fe3d449ee15060]
link basic to machine--><path d="M437.33,137.89 C424.57,147.68 411.41,160.64 404.5,176 C395.64,195.69 396.91,220.19 400.11,239.03 " fill="none" id="basic-to-machine" style="stroke:#A80036;stroke-width:1.0;"/><polygon fill="#A80036" points="401.06,244.19,403.3463,234.6102,400.1455,239.2743,395.4813,236.0735,401.06,244.19" style="stroke:#A80036;stroke-width:1.0;"/><text fill="#000000" font-family="sans-serif" font-size="13" lengthAdjust="spacing" textLength="85" x="405.5" y="190.4951">Mantenimiento</text><text fill="#000000" font-family="sans-serif" font-size="13" lengthAdjust="spacing" textLength="54" x="423" y="206.8467">perfectivo</text><!--MD5=[feb2b41713ab622cdc849ea7ffffacbb]
link basic to graphics--><path d="M480.87,141.68 C485.37,152.22 490.71,164.71 495.5,176 C504.46,197.12 514.52,220.97 522.18,239.17 " fill="none" id="basic-to-graphics" style="stroke:#A80036;stroke-width:1.0;"/><polygon fill="#A80036" points="524.27,244.14,524.4531,234.2928,522.3246,239.534,517.0835,237.4055,524.27,244.14" style="stroke:#A80036;stroke-width:1.0;"/><text fill="#000000" font-family="sans-serif" font-size="13" lengthAdjust="spacing" textLength="85" x="510.5" y="190.4951">Mantenimiento</text><text fill="#000000" font-family="sans-serif" font-size="13" lengthAdjust="spacing" textLength="58" x="526" y="206.8467">adaptativo</text><!--MD5=[a3c7278a0a07748a049dc5f40b803af9]
link graphics to undoRedo--><path d="M534.5,294.69 C534.5,320.14 534.5,360.21 534.5,387.49 " fill="none" id="graphics-to-undoRedo" style="stroke:#A80036;stroke-width:1.0;"/><polygon fill="#A80036" points="534.5,392.77,538.5,383.77,534.5,387.77,530.5,383.77,534.5,392.77" style="stroke:#A80036;stroke-width:1.0;"/><text fill="#000000" font-family="sans-serif" font-size="13" lengthAdjust="spacing" textLength="85" x="535.5" y="343.4951">Mantenimiento</text><text fill="#000000" font-family="sans-serif" font-size="13" lengthAdjust="spacing" textLength="54" x="553" y="359.8467">perfectivo</text><!--MD5=[1fa3100e9f98be965388dcc363e54d93]
link undoRedo to distributed--><path d="M534.5,443.09 C534.5,467.57 534.5,505.52 534.5,531.72 " fill="none" id="undoRedo-to-distributed" style="stroke:#A80036;stroke-width:1.0;"/><polygon fill="#A80036" points="534.5,536.79,538.5,527.79,534.5,531.79,530.5,527.79,534.5,536.79" style="stroke:#A80036;stroke-width:1.0;"/><text fill="#000000" font-family="sans-serif" font-size="13" lengthAdjust="spacing" textLength="85" x="535.5" y="487.4951">Mantenimiento</text><text fill="#000000" font-family="sans-serif" font-size="13" lengthAdjust="spacing" textLength="58" x="551" y="503.8467">adaptativo</text><!--MD5=[ae6a4513cfed85e31b054ce63a0ebab7]
link distributed to files--><path d="M534.5,587.09 C534.5,611.57 534.5,649.52 534.5,675.72 " fill="none" id="distributed-to-files" style="stroke:#A80036;stroke-width:1.0;"/><polygon fill="#A80036" points="534.5,680.79,538.5,671.79,534.5,675.79,530.5,671.79,534.5,680.79" style="stroke:#A80036;stroke-width:1.0;"/><text fill="#000000" font-family="sans-serif" font-size="13" lengthAdjust="spacing" textLength="85" x="535.5" y="631.4951">Mantenimiento</text><text fill="#000000" font-family="sans-serif" font-size="13" lengthAdjust="spacing" textLength="54" x="553" y="647.8467">perfectivo</text><!--MD5=[97ce427ecf8f1d90ed2f962bc935eb03]
link files to dataBase--><path d="M534.5,731.09 C534.5,755.57 534.5,793.52 534.5,819.72 " fill="none" id="files-to-dataBase" style="stroke:#A80036;stroke-width:1.0;"/><polygon fill="#A80036" points="534.5,824.79,538.5,815.79,534.5,819.79,530.5,815.79,534.5,824.79" style="stroke:#A80036;stroke-width:1.0;"/><text fill="#000000" font-family="sans-serif" font-size="13" lengthAdjust="spacing" textLength="85" x="535.5" y="775.4951">Mantenimiento</text><text fill="#000000" font-family="sans-serif" font-size="13" lengthAdjust="spacing" textLength="58" x="551" y="791.8467">adaptativo</text><!--MD5=[5b8cf17ccc63cbdc92265ebd69d71b02]
link dataBase to *end--><path d="M534.5,875.21 C534.5,892.84 534.5,916.13 534.5,930.84 " fill="none" id="dataBase-to-*end" style="stroke:#A80036;stroke-width:1.0;"/><polygon fill="#A80036" points="534.5,935.84,538.5,926.84,534.5,930.84,530.5,926.84,534.5,935.84" style="stroke:#A80036;stroke-width:1.0;"/><!--MD5=[dc7f5ad279e3c7662b6220d9724aa643]
@startuml versions

state "1-basic" as basic
state "2-machine" as machine 
state "3-graphics" as graphics 
state "4-undoRedo" as undoRedo 
state "5-distributed" as distributed
State "6-files" as files
State "7-dataBase" as dataBase

[*] - -> basic
basic - -> machine :Mantenimiento\n perfectivo
basic - -> graphics:Mantenimiento\n adaptativo
graphics - -> undoRedo:Mantenimiento\n perfectivo
undoRedo - -> distributed:Mantenimiento\n adaptativo
distributed - -> files:Mantenimiento\n perfectivo
files - -> dataBase:Mantenimiento\n adaptativo
dataBase - -> [*]

note right of basic #15D2F3
  Juego de las 3 en raya con interfaz de consola
   y con casos de uso para dos jugadores:
  arrancar, jugar y continuará.
end note

note left of machine #15D2F3
  Juego de las 3 en raya con interfaz de consola
   y con casos de uso añadiendo un jugador máquina:
  arrancar, jugar y continuará.
end note

note right of graphics #15D2F3
  Añadiendo interfaz gráfica.
end note

note right of undoRedo #15D2F3
  Añadiendo funcionalidad con deshacer
  y rehacer jugadas.
end note

note right of distributed #15D2F3
  Añadiendo distribución cliente/servidor.
end note

note right of files #15D2F3
  Añadiendo funcionalidad con persistencia
  de files.
end note

note right of dataBase #15D2F3
  Adaptando persistencia con bases de datos.
end note


@enduml

PlantUML version 1.2022.0(Tue Jan 11 17:16:42 CET 2022)
(GPL source distribution)
Java Runtime: Java(TM) SE Runtime Environment
JVM: Java HotSpot(TM) Client VM
Default Encoding: Cp1252
Language: es
Country: ES
--></g></svg>