<?xml version="1.0" encoding="UTF-8" standalone="no"?><svg xmlns="http://www.w3.org/2000/svg" xmlns:xlink="http://www.w3.org/1999/xlink" contentStyleType="text/css" height="1034px" preserveAspectRatio="none" style="width:854px;height:1034px;background:#FFFFFF;" version="1.1" viewBox="0 0 854 1034" width="854px" zoomAndPan="magnify"><defs/><g><!--MD5=[10b1f240992e2c34b6908209bf85bfd2]
class Connect4--><g id="elem_Connect4"><rect codeLine="2" fill="#F1F1F1" height="48" id="Connect4" rx="2.5" ry="2.5" style="stroke:#181818;stroke-width:0.5;" width="93" x="408.85" y="7"/><ellipse cx="423.85" cy="23" fill="#ADD1B2" rx="11" ry="11" style="stroke:#181818;stroke-width:1.0;"/><path d="M426.6156,18.875 Q426.7719,18.6563 426.9594,18.5469 Q427.1469,18.4375 427.3656,18.4375 Q427.7406,18.4375 427.975,18.7031 Q428.2094,18.9531 428.2094,19.5625 L428.2094,21.0156 Q428.2094,21.625 427.975,21.8906 Q427.7406,22.1563 427.3656,22.1563 Q427.0219,22.1563 426.8187,21.9531 Q426.6156,21.7656 426.5062,21.25 Q426.4594,20.8906 426.2719,20.7031 Q425.9437,20.3281 425.3344,20.1094 Q424.725,19.8906 424.1,19.8906 Q423.3344,19.8906 422.6937,20.2188 Q422.0687,20.5469 421.5687,21.2969 Q421.0844,22.0469 421.0844,23.0781 L421.0844,24.1719 Q421.0844,25.4063 421.975,26.2344 Q422.8656,27.0469 424.4594,27.0469 Q425.3969,27.0469 426.0531,26.7969 Q426.4437,26.6406 426.8656,26.2031 Q427.1312,25.9375 427.2719,25.8594 Q427.4281,25.7813 427.6312,25.7813 Q427.9594,25.7813 428.2094,26.0469 Q428.475,26.2969 428.475,26.6406 Q428.475,26.9844 428.1312,27.3906 Q427.6312,27.9688 426.8344,28.2969 Q425.7562,28.75 424.4594,28.75 Q422.9437,28.75 421.7406,28.125 Q420.7562,27.625 420.0687,26.5625 Q419.3812,25.4844 419.3812,24.2031 L419.3812,23.0469 Q419.3812,21.7188 419.9906,20.5781 Q420.6156,19.4219 421.7094,18.8125 Q422.8031,18.1875 424.0375,18.1875 Q424.7719,18.1875 425.4125,18.3594 Q426.0687,18.5156 426.6156,18.875 Z " fill="#000000"/><text fill="#000000" font-family="sans-serif" font-size="14" lengthAdjust="spacing" textLength="61" x="437.85" y="28.7285">Connect4</text><line style="stroke:#181818;stroke-width:0.5;" x1="409.85" x2="500.85" y1="39" y2="39"/><line style="stroke:#181818;stroke-width:0.5;" x1="409.85" x2="500.85" y1="47" y2="47"/></g><!--MD5=[dd91eae41778c45e12552e5329e240e8]
class Turn--><g id="elem_Turn"><rect codeLine="3" fill="#F1F1F1" height="48" id="Turn" rx="2.5" ry="2.5" style="stroke:#181818;stroke-width:0.5;" width="62" x="424.35" y="115"/><ellipse cx="439.35" cy="131" fill="#ADD1B2" rx="11" ry="11" style="stroke:#181818;stroke-width:1.0;"/><path d="M442.1156,126.875 Q442.2719,126.6563 442.4594,126.5469 Q442.6469,126.4375 442.8656,126.4375 Q443.2406,126.4375 443.475,126.7031 Q443.7094,126.9531 443.7094,127.5625 L443.7094,129.0156 Q443.7094,129.625 443.475,129.8906 Q443.2406,130.1563 442.8656,130.1563 Q442.5219,130.1563 442.3187,129.9531 Q442.1156,129.7656 442.0062,129.25 Q441.9594,128.8906 441.7719,128.7031 Q441.4437,128.3281 440.8344,128.1094 Q440.225,127.8906 439.6,127.8906 Q438.8344,127.8906 438.1937,128.2188 Q437.5687,128.5469 437.0687,129.2969 Q436.5844,130.0469 436.5844,131.0781 L436.5844,132.1719 Q436.5844,133.4063 437.475,134.2344 Q438.3656,135.0469 439.9594,135.0469 Q440.8969,135.0469 441.5531,134.7969 Q441.9437,134.6406 442.3656,134.2031 Q442.6312,133.9375 442.7719,133.8594 Q442.9281,133.7813 443.1312,133.7813 Q443.4594,133.7813 443.7094,134.0469 Q443.975,134.2969 443.975,134.6406 Q443.975,134.9844 443.6312,135.3906 Q443.1312,135.9688 442.3344,136.2969 Q441.2562,136.75 439.9594,136.75 Q438.4437,136.75 437.2406,136.125 Q436.2562,135.625 435.5687,134.5625 Q434.8812,133.4844 434.8812,132.2031 L434.8812,131.0469 Q434.8812,129.7188 435.4906,128.5781 Q436.1156,127.4219 437.2094,126.8125 Q438.3031,126.1875 439.5375,126.1875 Q440.2719,126.1875 440.9125,126.3594 Q441.5687,126.5156 442.1156,126.875 Z " fill="#000000"/><text fill="#000000" font-family="sans-serif" font-size="14" lengthAdjust="spacing" textLength="30" x="453.35" y="136.7285">Turn</text><line style="stroke:#181818;stroke-width:0.5;" x1="425.35" x2="485.35" y1="147" y2="147"/><line style="stroke:#181818;stroke-width:0.5;" x1="425.35" x2="485.35" y1="155" y2="155"/></g><!--MD5=[2cb47ba637a0d19583e6199456f6ad0b]
class Player--><g id="elem_Player"><rect codeLine="4" fill="#F1F1F1" height="48" id="Player" rx="2.5" ry="2.5" style="stroke:#181818;stroke-width:0.5;" width="72" x="486.35" y="223"/><ellipse cx="501.35" cy="239" fill="#ADD1B2" rx="11" ry="11" style="stroke:#181818;stroke-width:1.0;"/><path d="M504.1156,234.875 Q504.2719,234.6563 504.4594,234.5469 Q504.6469,234.4375 504.8656,234.4375 Q505.2406,234.4375 505.475,234.7031 Q505.7094,234.9531 505.7094,235.5625 L505.7094,237.0156 Q505.7094,237.625 505.475,237.8906 Q505.2406,238.1563 504.8656,238.1563 Q504.5219,238.1563 504.3187,237.9531 Q504.1156,237.7656 504.0062,237.25 Q503.9594,236.8906 503.7719,236.7031 Q503.4437,236.3281 502.8344,236.1094 Q502.225,235.8906 501.6,235.8906 Q500.8344,235.8906 500.1937,236.2188 Q499.5687,236.5469 499.0687,237.2969 Q498.5844,238.0469 498.5844,239.0781 L498.5844,240.1719 Q498.5844,241.4063 499.475,242.2344 Q500.3656,243.0469 501.9594,243.0469 Q502.8969,243.0469 503.5531,242.7969 Q503.9437,242.6406 504.3656,242.2031 Q504.6312,241.9375 504.7719,241.8594 Q504.9281,241.7813 505.1312,241.7813 Q505.4594,241.7813 505.7094,242.0469 Q505.975,242.2969 505.975,242.6406 Q505.975,242.9844 505.6312,243.3906 Q505.1312,243.9688 504.3344,244.2969 Q503.2562,244.75 501.9594,244.75 Q500.4437,244.75 499.2406,244.125 Q498.2562,243.625 497.5687,242.5625 Q496.8812,241.4844 496.8812,240.2031 L496.8812,239.0469 Q496.8812,237.7188 497.4906,236.5781 Q498.1156,235.4219 499.2094,234.8125 Q500.3031,234.1875 501.5375,234.1875 Q502.2719,234.1875 502.9125,234.3594 Q503.5687,234.5156 504.1156,234.875 Z " fill="#000000"/><text fill="#000000" font-family="sans-serif" font-size="14" lengthAdjust="spacing" textLength="40" x="515.35" y="244.7285">Player</text><line style="stroke:#181818;stroke-width:0.5;" x1="487.35" x2="557.35" y1="255" y2="255"/><line style="stroke:#181818;stroke-width:0.5;" x1="487.35" x2="557.35" y1="263" y2="263"/></g><!--MD5=[9563755d011c5cec7ec66dc53565a59e]
class Board--><g id="elem_Board"><rect codeLine="5" fill="#F1F1F1" height="48" id="Board" rx="2.5" ry="2.5" style="stroke:#181818;stroke-width:0.5;" width="70" x="336.35" y="331"/><ellipse cx="351.35" cy="347" fill="#ADD1B2" rx="11" ry="11" style="stroke:#181818;stroke-width:1.0;"/><path d="M354.1156,342.875 Q354.2719,342.6563 354.4594,342.5469 Q354.6469,342.4375 354.8656,342.4375 Q355.2406,342.4375 355.475,342.7031 Q355.7094,342.9531 355.7094,343.5625 L355.7094,345.0156 Q355.7094,345.625 355.475,345.8906 Q355.2406,346.1563 354.8656,346.1563 Q354.5219,346.1563 354.3187,345.9531 Q354.1156,345.7656 354.0062,345.25 Q353.9594,344.8906 353.7719,344.7031 Q353.4437,344.3281 352.8344,344.1094 Q352.225,343.8906 351.6,343.8906 Q350.8344,343.8906 350.1937,344.2188 Q349.5687,344.5469 349.0687,345.2969 Q348.5844,346.0469 348.5844,347.0781 L348.5844,348.1719 Q348.5844,349.4063 349.475,350.2344 Q350.3656,351.0469 351.9594,351.0469 Q352.8969,351.0469 353.5531,350.7969 Q353.9437,350.6406 354.3656,350.2031 Q354.6312,349.9375 354.7719,349.8594 Q354.9281,349.7813 355.1312,349.7813 Q355.4594,349.7813 355.7094,350.0469 Q355.975,350.2969 355.975,350.6406 Q355.975,350.9844 355.6312,351.3906 Q355.1312,351.9688 354.3344,352.2969 Q353.2562,352.75 351.9594,352.75 Q350.4437,352.75 349.2406,352.125 Q348.2562,351.625 347.5687,350.5625 Q346.8812,349.4844 346.8812,348.2031 L346.8812,347.0469 Q346.8812,345.7188 347.4906,344.5781 Q348.1156,343.4219 349.2094,342.8125 Q350.3031,342.1875 351.5375,342.1875 Q352.2719,342.1875 352.9125,342.3594 Q353.5687,342.5156 354.1156,342.875 Z " fill="#000000"/><text fill="#000000" font-family="sans-serif" font-size="14" lengthAdjust="spacing" textLength="38" x="365.35" y="352.7285">Board</text><line style="stroke:#181818;stroke-width:0.5;" x1="337.35" x2="405.35" y1="363" y2="363"/><line style="stroke:#181818;stroke-width:0.5;" x1="337.35" x2="405.35" y1="371" y2="371"/></g><!--MD5=[8c7d7abc12e214c3cc12c9ab70edee11]
class Coordinate--><g id="elem_Coordinate"><rect codeLine="6" fill="#F1F1F1" height="48" id="Coordinate" rx="2.5" ry="2.5" style="stroke:#181818;stroke-width:0.5;" width="102" x="658.35" y="655"/><ellipse cx="673.35" cy="671" fill="#ADD1B2" rx="11" ry="11" style="stroke:#181818;stroke-width:1.0;"/><path d="M676.1156,666.875 Q676.2719,666.6563 676.4594,666.5469 Q676.6469,666.4375 676.8656,666.4375 Q677.2406,666.4375 677.475,666.7031 Q677.7094,666.9531 677.7094,667.5625 L677.7094,669.0156 Q677.7094,669.625 677.475,669.8906 Q677.2406,670.1563 676.8656,670.1563 Q676.5219,670.1563 676.3188,669.9531 Q676.1156,669.7656 676.0063,669.25 Q675.9594,668.8906 675.7719,668.7031 Q675.4438,668.3281 674.8344,668.1094 Q674.225,667.8906 673.6,667.8906 Q672.8344,667.8906 672.1938,668.2188 Q671.5688,668.5469 671.0688,669.2969 Q670.5844,670.0469 670.5844,671.0781 L670.5844,672.1719 Q670.5844,673.4063 671.475,674.2344 Q672.3656,675.0469 673.9594,675.0469 Q674.8969,675.0469 675.5531,674.7969 Q675.9438,674.6406 676.3656,674.2031 Q676.6313,673.9375 676.7719,673.8594 Q676.9281,673.7813 677.1313,673.7813 Q677.4594,673.7813 677.7094,674.0469 Q677.975,674.2969 677.975,674.6406 Q677.975,674.9844 677.6313,675.3906 Q677.1313,675.9688 676.3344,676.2969 Q675.2563,676.75 673.9594,676.75 Q672.4438,676.75 671.2406,676.125 Q670.2563,675.625 669.5688,674.5625 Q668.8813,673.4844 668.8813,672.2031 L668.8813,671.0469 Q668.8813,669.7188 669.4906,668.5781 Q670.1156,667.4219 671.2094,666.8125 Q672.3031,666.1875 673.5375,666.1875 Q674.2719,666.1875 674.9125,666.3594 Q675.5688,666.5156 676.1156,666.875 Z " fill="#000000"/><text fill="#000000" font-family="sans-serif" font-size="14" lengthAdjust="spacing" textLength="70" x="687.35" y="676.7285">Coordinate</text><line style="stroke:#181818;stroke-width:0.5;" x1="659.35" x2="759.35" y1="687" y2="687"/><line style="stroke:#181818;stroke-width:0.5;" x1="659.35" x2="759.35" y1="695" y2="695"/></g><!--MD5=[d8c8cfd5ca149094f5b67f9f607a5ec7]
class Token--><g id="elem_Token"><rect codeLine="7" fill="#F1F1F1" height="48" id="Token" rx="2.5" ry="2.5" style="stroke:#181818;stroke-width:0.5;" width="72" x="681.35" y="763"/><ellipse cx="696.35" cy="779" fill="#ADD1B2" rx="11" ry="11" style="stroke:#181818;stroke-width:1.0;"/><path d="M699.1156,774.875 Q699.2719,774.6563 699.4594,774.5469 Q699.6469,774.4375 699.8656,774.4375 Q700.2406,774.4375 700.475,774.7031 Q700.7094,774.9531 700.7094,775.5625 L700.7094,777.0156 Q700.7094,777.625 700.475,777.8906 Q700.2406,778.1563 699.8656,778.1563 Q699.5219,778.1563 699.3188,777.9531 Q699.1156,777.7656 699.0063,777.25 Q698.9594,776.8906 698.7719,776.7031 Q698.4438,776.3281 697.8344,776.1094 Q697.225,775.8906 696.6,775.8906 Q695.8344,775.8906 695.1938,776.2188 Q694.5688,776.5469 694.0688,777.2969 Q693.5844,778.0469 693.5844,779.0781 L693.5844,780.1719 Q693.5844,781.4063 694.475,782.2344 Q695.3656,783.0469 696.9594,783.0469 Q697.8969,783.0469 698.5531,782.7969 Q698.9438,782.6406 699.3656,782.2031 Q699.6313,781.9375 699.7719,781.8594 Q699.9281,781.7813 700.1313,781.7813 Q700.4594,781.7813 700.7094,782.0469 Q700.975,782.2969 700.975,782.6406 Q700.975,782.9844 700.6313,783.3906 Q700.1313,783.9688 699.3344,784.2969 Q698.2563,784.75 696.9594,784.75 Q695.4438,784.75 694.2406,784.125 Q693.2563,783.625 692.5688,782.5625 Q691.8813,781.4844 691.8813,780.2031 L691.8813,779.0469 Q691.8813,777.7188 692.4906,776.5781 Q693.1156,775.4219 694.2094,774.8125 Q695.3031,774.1875 696.5375,774.1875 Q697.2719,774.1875 697.9125,774.3594 Q698.5688,774.5156 699.1156,774.875 Z " fill="#000000"/><text fill="#000000" font-family="sans-serif" font-size="14" lengthAdjust="spacing" textLength="40" x="710.35" y="784.7285">Token</text><line style="stroke:#181818;stroke-width:0.5;" x1="682.35" x2="752.35" y1="795" y2="795"/><line style="stroke:#181818;stroke-width:0.5;" x1="682.35" x2="752.35" y1="803" y2="803"/></g><!--MD5=[0992d3fdc9d3d7c02b735131bb70871d]
class Goal--><g id="elem_Goal"><rect codeLine="8" fill="#F1F1F1" height="48" id="Goal" rx="2.5" ry="2.5" style="stroke:#181818;stroke-width:0.5;" width="62" x="474.35" y="331"/><ellipse cx="489.35" cy="347" fill="#ADD1B2" rx="11" ry="11" style="stroke:#181818;stroke-width:1.0;"/><path d="M492.1156,342.875 Q492.2719,342.6563 492.4594,342.5469 Q492.6469,342.4375 492.8656,342.4375 Q493.2406,342.4375 493.475,342.7031 Q493.7094,342.9531 493.7094,343.5625 L493.7094,345.0156 Q493.7094,345.625 493.475,345.8906 Q493.2406,346.1563 492.8656,346.1563 Q492.5219,346.1563 492.3187,345.9531 Q492.1156,345.7656 492.0062,345.25 Q491.9594,344.8906 491.7719,344.7031 Q491.4437,344.3281 490.8344,344.1094 Q490.225,343.8906 489.6,343.8906 Q488.8344,343.8906 488.1937,344.2188 Q487.5687,344.5469 487.0687,345.2969 Q486.5844,346.0469 486.5844,347.0781 L486.5844,348.1719 Q486.5844,349.4063 487.475,350.2344 Q488.3656,351.0469 489.9594,351.0469 Q490.8969,351.0469 491.5531,350.7969 Q491.9437,350.6406 492.3656,350.2031 Q492.6312,349.9375 492.7719,349.8594 Q492.9281,349.7813 493.1312,349.7813 Q493.4594,349.7813 493.7094,350.0469 Q493.975,350.2969 493.975,350.6406 Q493.975,350.9844 493.6312,351.3906 Q493.1312,351.9688 492.3344,352.2969 Q491.2562,352.75 489.9594,352.75 Q488.4437,352.75 487.2406,352.125 Q486.2562,351.625 485.5687,350.5625 Q484.8812,349.4844 484.8812,348.2031 L484.8812,347.0469 Q484.8812,345.7188 485.4906,344.5781 Q486.1156,343.4219 487.2094,342.8125 Q488.3031,342.1875 489.5375,342.1875 Q490.2719,342.1875 490.9125,342.3594 Q491.5687,342.5156 492.1156,342.875 Z " fill="#000000"/><text fill="#000000" font-family="sans-serif" font-size="14" lengthAdjust="spacing" textLength="30" x="503.35" y="352.7285">Goal</text><line style="stroke:#181818;stroke-width:0.5;" x1="475.35" x2="535.35" y1="363" y2="363"/><line style="stroke:#181818;stroke-width:0.5;" x1="475.35" x2="535.35" y1="371" y2="371"/></g><!--MD5=[18eee71c88ab61f27581b8cbdd3ef5ee]
class Color--><g id="elem_Color"><rect codeLine="9" fill="#F1F1F1" height="48" id="Color" rx="2.5" ry="2.5" style="stroke:#181818;stroke-width:0.5;" width="66" x="728.35" y="871"/><ellipse cx="743.35" cy="887" fill="#ADD1B2" rx="11" ry="11" style="stroke:#181818;stroke-width:1.0;"/><path d="M746.1156,882.875 Q746.2719,882.6563 746.4594,882.5469 Q746.6469,882.4375 746.8656,882.4375 Q747.2406,882.4375 747.475,882.7031 Q747.7094,882.9531 747.7094,883.5625 L747.7094,885.0156 Q747.7094,885.625 747.475,885.8906 Q747.2406,886.1563 746.8656,886.1563 Q746.5219,886.1563 746.3188,885.9531 Q746.1156,885.7656 746.0063,885.25 Q745.9594,884.8906 745.7719,884.7031 Q745.4438,884.3281 744.8344,884.1094 Q744.225,883.8906 743.6,883.8906 Q742.8344,883.8906 742.1938,884.2188 Q741.5688,884.5469 741.0688,885.2969 Q740.5844,886.0469 740.5844,887.0781 L740.5844,888.1719 Q740.5844,889.4063 741.475,890.2344 Q742.3656,891.0469 743.9594,891.0469 Q744.8969,891.0469 745.5531,890.7969 Q745.9438,890.6406 746.3656,890.2031 Q746.6313,889.9375 746.7719,889.8594 Q746.9281,889.7813 747.1313,889.7813 Q747.4594,889.7813 747.7094,890.0469 Q747.975,890.2969 747.975,890.6406 Q747.975,890.9844 747.6313,891.3906 Q747.1313,891.9688 746.3344,892.2969 Q745.2563,892.75 743.9594,892.75 Q742.4438,892.75 741.2406,892.125 Q740.2563,891.625 739.5688,890.5625 Q738.8813,889.4844 738.8813,888.2031 L738.8813,887.0469 Q738.8813,885.7188 739.4906,884.5781 Q740.1156,883.4219 741.2094,882.8125 Q742.3031,882.1875 743.5375,882.1875 Q744.2719,882.1875 744.9125,882.3594 Q745.5688,882.5156 746.1156,882.875 Z " fill="#000000"/><text fill="#000000" font-family="sans-serif" font-size="14" lengthAdjust="spacing" textLength="34" x="757.35" y="892.7285">Color</text><line style="stroke:#181818;stroke-width:0.5;" x1="729.35" x2="793.35" y1="903" y2="903"/><line style="stroke:#181818;stroke-width:0.5;" x1="729.35" x2="793.35" y1="911" y2="911"/></g><!--MD5=[08be530975453a47bdc5b5370100f2fc]
class Red--><g id="elem_Red"><rect codeLine="10" fill="#F1F1F1" height="48" id="Red" rx="2.5" ry="2.5" style="stroke:#181818;stroke-width:0.5;" width="58" x="682.35" y="979"/><ellipse cx="697.35" cy="995" fill="#ADD1B2" rx="11" ry="11" style="stroke:#181818;stroke-width:1.0;"/><path d="M700.1156,990.875 Q700.2719,990.6563 700.4594,990.5469 Q700.6469,990.4375 700.8656,990.4375 Q701.2406,990.4375 701.475,990.7031 Q701.7094,990.9531 701.7094,991.5625 L701.7094,993.0156 Q701.7094,993.625 701.475,993.8906 Q701.2406,994.1563 700.8656,994.1563 Q700.5219,994.1563 700.3188,993.9531 Q700.1156,993.7656 700.0063,993.25 Q699.9594,992.8906 699.7719,992.7031 Q699.4438,992.3281 698.8344,992.1094 Q698.225,991.8906 697.6,991.8906 Q696.8344,991.8906 696.1938,992.2188 Q695.5688,992.5469 695.0688,993.2969 Q694.5844,994.0469 694.5844,995.0781 L694.5844,996.1719 Q694.5844,997.4063 695.475,998.2344 Q696.3656,999.0469 697.9594,999.0469 Q698.8969,999.0469 699.5531,998.7969 Q699.9438,998.6406 700.3656,998.2031 Q700.6313,997.9375 700.7719,997.8594 Q700.9281,997.7813 701.1313,997.7813 Q701.4594,997.7813 701.7094,998.0469 Q701.975,998.2969 701.975,998.6406 Q701.975,998.9844 701.6313,999.3906 Q701.1313,999.9688 700.3344,1000.2969 Q699.2563,1000.75 697.9594,1000.75 Q696.4438,1000.75 695.2406,1000.125 Q694.2563,999.625 693.5688,998.5625 Q692.8813,997.4844 692.8813,996.2031 L692.8813,995.0469 Q692.8813,993.7188 693.4906,992.5781 Q694.1156,991.4219 695.2094,990.8125 Q696.3031,990.1875 697.5375,990.1875 Q698.2719,990.1875 698.9125,990.3594 Q699.5688,990.5156 700.1156,990.875 Z " fill="#000000"/><text fill="#000000" font-family="sans-serif" font-size="14" lengthAdjust="spacing" textLength="26" x="711.35" y="1000.7285">Red</text><line style="stroke:#181818;stroke-width:0.5;" x1="683.35" x2="739.35" y1="1011" y2="1011"/><line style="stroke:#181818;stroke-width:0.5;" x1="683.35" x2="739.35" y1="1019" y2="1019"/></g><!--MD5=[59a197a4e33151d5112197f2c5528c04]
class Yellow--><g id="elem_Yellow"><rect codeLine="11" fill="#F1F1F1" height="48" id="Yellow" rx="2.5" ry="2.5" style="stroke:#181818;stroke-width:0.5;" width="72" x="775.35" y="979"/><ellipse cx="790.35" cy="995" fill="#ADD1B2" rx="11" ry="11" style="stroke:#181818;stroke-width:1.0;"/><path d="M793.1156,990.875 Q793.2719,990.6563 793.4594,990.5469 Q793.6469,990.4375 793.8656,990.4375 Q794.2406,990.4375 794.475,990.7031 Q794.7094,990.9531 794.7094,991.5625 L794.7094,993.0156 Q794.7094,993.625 794.475,993.8906 Q794.2406,994.1563 793.8656,994.1563 Q793.5219,994.1563 793.3188,993.9531 Q793.1156,993.7656 793.0063,993.25 Q792.9594,992.8906 792.7719,992.7031 Q792.4438,992.3281 791.8344,992.1094 Q791.225,991.8906 790.6,991.8906 Q789.8344,991.8906 789.1938,992.2188 Q788.5688,992.5469 788.0688,993.2969 Q787.5844,994.0469 787.5844,995.0781 L787.5844,996.1719 Q787.5844,997.4063 788.475,998.2344 Q789.3656,999.0469 790.9594,999.0469 Q791.8969,999.0469 792.5531,998.7969 Q792.9438,998.6406 793.3656,998.2031 Q793.6313,997.9375 793.7719,997.8594 Q793.9281,997.7813 794.1313,997.7813 Q794.4594,997.7813 794.7094,998.0469 Q794.975,998.2969 794.975,998.6406 Q794.975,998.9844 794.6313,999.3906 Q794.1313,999.9688 793.3344,1000.2969 Q792.2563,1000.75 790.9594,1000.75 Q789.4438,1000.75 788.2406,1000.125 Q787.2563,999.625 786.5688,998.5625 Q785.8813,997.4844 785.8813,996.2031 L785.8813,995.0469 Q785.8813,993.7188 786.4906,992.5781 Q787.1156,991.4219 788.2094,990.8125 Q789.3031,990.1875 790.5375,990.1875 Q791.2719,990.1875 791.9125,990.3594 Q792.5688,990.5156 793.1156,990.875 Z " fill="#000000"/><text fill="#000000" font-family="sans-serif" font-size="14" lengthAdjust="spacing" textLength="40" x="804.35" y="1000.7285">Yellow</text><line style="stroke:#181818;stroke-width:0.5;" x1="776.35" x2="846.35" y1="1011" y2="1011"/><line style="stroke:#181818;stroke-width:0.5;" x1="776.35" x2="846.35" y1="1019" y2="1019"/></g><!--MD5=[db0ea1319b65560d260e9d2ce5665814]
class Drop--><g id="elem_Drop"><rect codeLine="12" fill="#F1F1F1" height="48" id="Drop" rx="2.5" ry="2.5" style="stroke:#181818;stroke-width:0.5;" width="63" x="696.85" y="439"/><ellipse cx="711.85" cy="455" fill="#ADD1B2" rx="11" ry="11" style="stroke:#181818;stroke-width:1.0;"/><path d="M714.6156,450.875 Q714.7719,450.6563 714.9594,450.5469 Q715.1469,450.4375 715.3656,450.4375 Q715.7406,450.4375 715.975,450.7031 Q716.2094,450.9531 716.2094,451.5625 L716.2094,453.0156 Q716.2094,453.625 715.975,453.8906 Q715.7406,454.1563 715.3656,454.1563 Q715.0219,454.1563 714.8188,453.9531 Q714.6156,453.7656 714.5063,453.25 Q714.4594,452.8906 714.2719,452.7031 Q713.9438,452.3281 713.3344,452.1094 Q712.725,451.8906 712.1,451.8906 Q711.3344,451.8906 710.6938,452.2188 Q710.0688,452.5469 709.5688,453.2969 Q709.0844,454.0469 709.0844,455.0781 L709.0844,456.1719 Q709.0844,457.4063 709.975,458.2344 Q710.8656,459.0469 712.4594,459.0469 Q713.3969,459.0469 714.0531,458.7969 Q714.4438,458.6406 714.8656,458.2031 Q715.1313,457.9375 715.2719,457.8594 Q715.4281,457.7813 715.6313,457.7813 Q715.9594,457.7813 716.2094,458.0469 Q716.475,458.2969 716.475,458.6406 Q716.475,458.9844 716.1313,459.3906 Q715.6313,459.9688 714.8344,460.2969 Q713.7563,460.75 712.4594,460.75 Q710.9438,460.75 709.7406,460.125 Q708.7563,459.625 708.0688,458.5625 Q707.3813,457.4844 707.3813,456.2031 L707.3813,455.0469 Q707.3813,453.7188 707.9906,452.5781 Q708.6156,451.4219 709.7094,450.8125 Q710.8031,450.1875 712.0375,450.1875 Q712.7719,450.1875 713.4125,450.3594 Q714.0688,450.5156 714.6156,450.875 Z " fill="#000000"/><text fill="#000000" font-family="sans-serif" font-size="14" lengthAdjust="spacing" textLength="31" x="725.85" y="460.7285">Drop</text><line style="stroke:#181818;stroke-width:0.5;" x1="697.85" x2="758.85" y1="471" y2="471"/><line style="stroke:#181818;stroke-width:0.5;" x1="697.85" x2="758.85" y1="479" y2="479"/></g><!--MD5=[e06ef809dd6be8ce79b58fe0a1161eb8]
class Column--><g id="elem_Column"><rect fill="#F1F1F1" height="48" id="Column" rx="2.5" ry="2.5" style="stroke:#181818;stroke-width:0.5;" width="80" x="595.35" y="547"/><ellipse cx="610.35" cy="563" fill="#ADD1B2" rx="11" ry="11" style="stroke:#181818;stroke-width:1.0;"/><path d="M613.1156,558.875 Q613.2719,558.6563 613.4594,558.5469 Q613.6469,558.4375 613.8656,558.4375 Q614.2406,558.4375 614.475,558.7031 Q614.7094,558.9531 614.7094,559.5625 L614.7094,561.0156 Q614.7094,561.625 614.475,561.8906 Q614.2406,562.1563 613.8656,562.1563 Q613.5219,562.1563 613.3188,561.9531 Q613.1156,561.7656 613.0063,561.25 Q612.9594,560.8906 612.7719,560.7031 Q612.4438,560.3281 611.8344,560.1094 Q611.225,559.8906 610.6,559.8906 Q609.8344,559.8906 609.1938,560.2188 Q608.5688,560.5469 608.0688,561.2969 Q607.5844,562.0469 607.5844,563.0781 L607.5844,564.1719 Q607.5844,565.4063 608.475,566.2344 Q609.3656,567.0469 610.9594,567.0469 Q611.8969,567.0469 612.5531,566.7969 Q612.9438,566.6406 613.3656,566.2031 Q613.6313,565.9375 613.7719,565.8594 Q613.9281,565.7813 614.1313,565.7813 Q614.4594,565.7813 614.7094,566.0469 Q614.975,566.2969 614.975,566.6406 Q614.975,566.9844 614.6313,567.3906 Q614.1313,567.9688 613.3344,568.2969 Q612.2563,568.75 610.9594,568.75 Q609.4438,568.75 608.2406,568.125 Q607.2563,567.625 606.5688,566.5625 Q605.8813,565.4844 605.8813,564.2031 L605.8813,563.0469 Q605.8813,561.7188 606.4906,560.5781 Q607.1156,559.4219 608.2094,558.8125 Q609.3031,558.1875 610.5375,558.1875 Q611.2719,558.1875 611.9125,558.3594 Q612.5688,558.5156 613.1156,558.875 Z " fill="#000000"/><text fill="#000000" font-family="sans-serif" font-size="14" lengthAdjust="spacing" textLength="48" x="624.35" y="568.7285">Column</text><line style="stroke:#181818;stroke-width:0.5;" x1="596.35" x2="674.35" y1="579" y2="579"/><line style="stroke:#181818;stroke-width:0.5;" x1="596.35" x2="674.35" y1="587" y2="587"/></g><!--MD5=[59549f11941b458f8d1ae041ff8bad3f]
class HorizontalGoal--><g id="elem_HorizontalGoal"><rect fill="#F1F1F1" height="48" id="HorizontalGoal" rx="2.5" ry="2.5" style="stroke:#181818;stroke-width:0.5;" width="124" x="96.35" y="439"/><ellipse cx="111.35" cy="455" fill="#ADD1B2" rx="11" ry="11" style="stroke:#181818;stroke-width:1.0;"/><path d="M114.1156,450.875 Q114.2719,450.6563 114.4594,450.5469 Q114.6469,450.4375 114.8656,450.4375 Q115.2406,450.4375 115.475,450.7031 Q115.7094,450.9531 115.7094,451.5625 L115.7094,453.0156 Q115.7094,453.625 115.475,453.8906 Q115.2406,454.1563 114.8656,454.1563 Q114.5219,454.1563 114.3188,453.9531 Q114.1156,453.7656 114.0063,453.25 Q113.9594,452.8906 113.7719,452.7031 Q113.4438,452.3281 112.8344,452.1094 Q112.225,451.8906 111.6,451.8906 Q110.8344,451.8906 110.1938,452.2188 Q109.5688,452.5469 109.0688,453.2969 Q108.5844,454.0469 108.5844,455.0781 L108.5844,456.1719 Q108.5844,457.4063 109.475,458.2344 Q110.3656,459.0469 111.9594,459.0469 Q112.8969,459.0469 113.5531,458.7969 Q113.9438,458.6406 114.3656,458.2031 Q114.6313,457.9375 114.7719,457.8594 Q114.9281,457.7813 115.1313,457.7813 Q115.4594,457.7813 115.7094,458.0469 Q115.975,458.2969 115.975,458.6406 Q115.975,458.9844 115.6313,459.3906 Q115.1313,459.9688 114.3344,460.2969 Q113.2563,460.75 111.9594,460.75 Q110.4438,460.75 109.2406,460.125 Q108.2563,459.625 107.5688,458.5625 Q106.8813,457.4844 106.8813,456.2031 L106.8813,455.0469 Q106.8813,453.7188 107.4906,452.5781 Q108.1156,451.4219 109.2094,450.8125 Q110.3031,450.1875 111.5375,450.1875 Q112.2719,450.1875 112.9125,450.3594 Q113.5688,450.5156 114.1156,450.875 Z " fill="#000000"/><text fill="#000000" font-family="sans-serif" font-size="14" lengthAdjust="spacing" textLength="92" x="125.35" y="460.7285">HorizontalGoal</text><line style="stroke:#181818;stroke-width:0.5;" x1="97.35" x2="219.35" y1="471" y2="471"/><line style="stroke:#181818;stroke-width:0.5;" x1="97.35" x2="219.35" y1="479" y2="479"/></g><!--MD5=[f08d3015085f61debfcc9a8898a84f44]
class VerticalGoal--><g id="elem_VerticalGoal"><rect fill="#F1F1F1" height="48" id="VerticalGoal" rx="2.5" ry="2.5" style="stroke:#181818;stroke-width:0.5;" width="109" x="255.85" y="439"/><ellipse cx="270.85" cy="455" fill="#ADD1B2" rx="11" ry="11" style="stroke:#181818;stroke-width:1.0;"/><path d="M273.6156,450.875 Q273.7719,450.6563 273.9594,450.5469 Q274.1469,450.4375 274.3656,450.4375 Q274.7406,450.4375 274.975,450.7031 Q275.2094,450.9531 275.2094,451.5625 L275.2094,453.0156 Q275.2094,453.625 274.975,453.8906 Q274.7406,454.1563 274.3656,454.1563 Q274.0219,454.1563 273.8188,453.9531 Q273.6156,453.7656 273.5063,453.25 Q273.4594,452.8906 273.2719,452.7031 Q272.9438,452.3281 272.3344,452.1094 Q271.725,451.8906 271.1,451.8906 Q270.3344,451.8906 269.6938,452.2188 Q269.0688,452.5469 268.5688,453.2969 Q268.0844,454.0469 268.0844,455.0781 L268.0844,456.1719 Q268.0844,457.4063 268.975,458.2344 Q269.8656,459.0469 271.4594,459.0469 Q272.3969,459.0469 273.0531,458.7969 Q273.4438,458.6406 273.8656,458.2031 Q274.1313,457.9375 274.2719,457.8594 Q274.4281,457.7813 274.6313,457.7813 Q274.9594,457.7813 275.2094,458.0469 Q275.475,458.2969 275.475,458.6406 Q275.475,458.9844 275.1313,459.3906 Q274.6313,459.9688 273.8344,460.2969 Q272.7563,460.75 271.4594,460.75 Q269.9438,460.75 268.7406,460.125 Q267.7563,459.625 267.0688,458.5625 Q266.3813,457.4844 266.3813,456.2031 L266.3813,455.0469 Q266.3813,453.7188 266.9906,452.5781 Q267.6156,451.4219 268.7094,450.8125 Q269.8031,450.1875 271.0375,450.1875 Q271.7719,450.1875 272.4125,450.3594 Q273.0688,450.5156 273.6156,450.875 Z " fill="#000000"/><text fill="#000000" font-family="sans-serif" font-size="14" lengthAdjust="spacing" textLength="77" x="284.85" y="460.7285">VerticalGoal</text><line style="stroke:#181818;stroke-width:0.5;" x1="256.85" x2="363.85" y1="471" y2="471"/><line style="stroke:#181818;stroke-width:0.5;" x1="256.85" x2="363.85" y1="479" y2="479"/></g><!--MD5=[349f21cd86674f458ae2016bd8655fed]
class DiagonalGoal--><g id="elem_DiagonalGoal"><rect fill="#F1F1F1" height="48" id="DiagonalGoal" rx="2.5" ry="2.5" style="stroke:#181818;stroke-width:0.5;" width="118" x="400.35" y="439"/><ellipse cx="415.35" cy="455" fill="#ADD1B2" rx="11" ry="11" style="stroke:#181818;stroke-width:1.0;"/><path d="M418.1156,450.875 Q418.2719,450.6563 418.4594,450.5469 Q418.6469,450.4375 418.8656,450.4375 Q419.2406,450.4375 419.475,450.7031 Q419.7094,450.9531 419.7094,451.5625 L419.7094,453.0156 Q419.7094,453.625 419.475,453.8906 Q419.2406,454.1563 418.8656,454.1563 Q418.5219,454.1563 418.3187,453.9531 Q418.1156,453.7656 418.0062,453.25 Q417.9594,452.8906 417.7719,452.7031 Q417.4437,452.3281 416.8344,452.1094 Q416.225,451.8906 415.6,451.8906 Q414.8344,451.8906 414.1937,452.2188 Q413.5687,452.5469 413.0687,453.2969 Q412.5844,454.0469 412.5844,455.0781 L412.5844,456.1719 Q412.5844,457.4063 413.475,458.2344 Q414.3656,459.0469 415.9594,459.0469 Q416.8969,459.0469 417.5531,458.7969 Q417.9437,458.6406 418.3656,458.2031 Q418.6312,457.9375 418.7719,457.8594 Q418.9281,457.7813 419.1312,457.7813 Q419.4594,457.7813 419.7094,458.0469 Q419.975,458.2969 419.975,458.6406 Q419.975,458.9844 419.6312,459.3906 Q419.1312,459.9688 418.3344,460.2969 Q417.2562,460.75 415.9594,460.75 Q414.4437,460.75 413.2406,460.125 Q412.2562,459.625 411.5687,458.5625 Q410.8812,457.4844 410.8812,456.2031 L410.8812,455.0469 Q410.8812,453.7188 411.4906,452.5781 Q412.1156,451.4219 413.2094,450.8125 Q414.3031,450.1875 415.5375,450.1875 Q416.2719,450.1875 416.9125,450.3594 Q417.5687,450.5156 418.1156,450.875 Z " fill="#000000"/><text fill="#000000" font-family="sans-serif" font-size="14" lengthAdjust="spacing" textLength="86" x="429.35" y="460.7285">DiagonalGoal</text><line style="stroke:#181818;stroke-width:0.5;" x1="401.35" x2="517.35" y1="471" y2="471"/><line style="stroke:#181818;stroke-width:0.5;" x1="401.35" x2="517.35" y1="479" y2="479"/></g><!--MD5=[f6ee1b64b09ecaee790975da1bb4c923]
class InverseGoal--><g id="elem_InverseGoal"><rect fill="#F1F1F1" height="48" id="InverseGoal" rx="2.5" ry="2.5" style="stroke:#181818;stroke-width:0.5;" width="108" x="553.35" y="439"/><ellipse cx="568.35" cy="455" fill="#ADD1B2" rx="11" ry="11" style="stroke:#181818;stroke-width:1.0;"/><path d="M571.1156,450.875 Q571.2719,450.6563 571.4594,450.5469 Q571.6469,450.4375 571.8656,450.4375 Q572.2406,450.4375 572.475,450.7031 Q572.7094,450.9531 572.7094,451.5625 L572.7094,453.0156 Q572.7094,453.625 572.475,453.8906 Q572.2406,454.1563 571.8656,454.1563 Q571.5219,454.1563 571.3188,453.9531 Q571.1156,453.7656 571.0063,453.25 Q570.9594,452.8906 570.7719,452.7031 Q570.4438,452.3281 569.8344,452.1094 Q569.225,451.8906 568.6,451.8906 Q567.8344,451.8906 567.1938,452.2188 Q566.5688,452.5469 566.0688,453.2969 Q565.5844,454.0469 565.5844,455.0781 L565.5844,456.1719 Q565.5844,457.4063 566.475,458.2344 Q567.3656,459.0469 568.9594,459.0469 Q569.8969,459.0469 570.5531,458.7969 Q570.9438,458.6406 571.3656,458.2031 Q571.6313,457.9375 571.7719,457.8594 Q571.9281,457.7813 572.1313,457.7813 Q572.4594,457.7813 572.7094,458.0469 Q572.975,458.2969 572.975,458.6406 Q572.975,458.9844 572.6313,459.3906 Q572.1313,459.9688 571.3344,460.2969 Q570.2563,460.75 568.9594,460.75 Q567.4438,460.75 566.2406,460.125 Q565.2563,459.625 564.5688,458.5625 Q563.8813,457.4844 563.8813,456.2031 L563.8813,455.0469 Q563.8813,453.7188 564.4906,452.5781 Q565.1156,451.4219 566.2094,450.8125 Q567.3031,450.1875 568.5375,450.1875 Q569.2719,450.1875 569.9125,450.3594 Q570.5688,450.5156 571.1156,450.875 Z " fill="#000000"/><text fill="#000000" font-family="sans-serif" font-size="14" lengthAdjust="spacing" textLength="76" x="582.35" y="460.7285">InverseGoal</text><line style="stroke:#181818;stroke-width:0.5;" x1="554.35" x2="660.35" y1="471" y2="471"/><line style="stroke:#181818;stroke-width:0.5;" x1="554.35" x2="660.35" y1="479" y2="479"/></g><!--MD5=[5426a1d26e36fcd61d30da6b8a6545ec]
link Connect4 to Board--><g id="link_Connect4_Board"><path codeLine="14" d="M431.7807,65.149 C431.7807,65.149 412.37,97.94 406.35,115 C382,183.95 374.58,269.86 372.33,317.63 " fill="none" id="Connect4-Board" style="stroke:#181818;stroke-width:1.0;"/><polygon fill="#181818" points="371.79,330.89,376.1527,322.0601,371.9934,325.8941,368.1593,321.7348,371.79,330.89" style="stroke:#181818;stroke-width:1.0;"/><line style="stroke:#181818;stroke-width:1.0;" x1="371.9934" x2="372.315" y1="325.8941" y2="317.905"/><polygon fill="#181818" points="438.37,55.12,431.7323,57.938,431.7807,65.149,438.4183,62.3309,438.37,55.12" style="stroke:#181818;stroke-width:1.0;"/></g><!--MD5=[6824fd9902778444ee49992acd2ffe7e]
link Connect4 to Turn--><g id="link_Connect4_Turn"><path codeLine="15" d="M455.35,67 C455.35,67 455.35,90.68 455.35,101.36 " fill="none" id="Connect4-Turn" style="stroke:#181818;stroke-width:1.0;"/><polygon fill="#181818" points="455.35,114.68,459.35,105.68,455.35,109.68,451.35,105.68,455.35,114.68" style="stroke:#181818;stroke-width:1.0;"/><line style="stroke:#181818;stroke-width:1.0;" x1="455.35" x2="455.35" y1="109.68" y2="101.68"/><polygon fill="#181818" points="455.35,55,451.35,61,455.35,67,459.35,61,455.35,55" style="stroke:#181818;stroke-width:1.0;"/></g><!--MD5=[46750473935a00282743b47f522de7be]
link Connect4 to Player--><g id="link_Connect4_Player"><path codeLine="16" d="M478.9754,65.125 C478.9754,65.125 498.4,97.92 504.35,115 C515.08,145.83 519.44,182.84 521.2,209.64 " fill="none" id="Connect4-Player" style="stroke:#181818;stroke-width:1.0;"/><polygon fill="#181818" points="521.9,222.64,525.4092,213.4375,521.6306,217.6473,517.4208,213.8686,521.9,222.64" style="stroke:#181818;stroke-width:1.0;"/><line style="stroke:#181818;stroke-width:1.0;" x1="521.6306" x2="521.2" y1="217.6473" y2="209.655"/><polygon fill="#181818" points="472.38,55.1,472.336,62.311,478.9754,65.125,479.0194,57.914,472.38,55.1" style="stroke:#181818;stroke-width:1.0;"/><text fill="#000000" font-family="sans-serif" font-size="13" lengthAdjust="spacing" textLength="7" x="513.9372" y="212.2902">2</text></g><!--MD5=[d81713d91ad05be3b975338c4816ee0b]
link Turn to Player--><g id="link_Turn_Player"><path codeLine="17" d="M469.88,163 C480.17,179.28 494.02,201.19 504.91,218.41 " fill="none" id="Turn-to-Player" style="stroke:#181818;stroke-width:1.0;"/><polygon fill="#181818" points="507.6,222.68,506.1748,212.9348,504.9295,218.4529,499.4114,217.2076,507.6,222.68" style="stroke:#181818;stroke-width:1.0;"/><text fill="#000000" font-family="sans-serif" font-size="13" lengthAdjust="spacing" textLength="7" x="496.1516" y="212.34">2</text></g><!--MD5=[c1f7e88598f78d9459764ed93737eb14]
link Player to Board--><g id="link_Player_Board"><path codeLine="18" d="M489.58,271 C465.72,287.75 433.37,310.46 408.54,327.89 " fill="none" id="Player-to-Board" style="stroke:#181818;stroke-width:1.0;"/><polygon fill="#181818" points="404.31,330.86,413.9734,328.9576,408.4008,327.985,409.3734,322.4124,404.31,330.86" style="stroke:#181818;stroke-width:1.0;"/></g><!--MD5=[ebf52a6f230ff8b0d594dd9ce4cd7c5b]
link Player to Color--><g id="link_Player_Color"><path codeLine="19" d="M558.61,256.39 C636.62,276.81 813.35,336.89 813.35,462 C813.35,462 813.35,462 813.35,680 C813.35,748.34 788,825.57 772.7,865.96 " fill="none" id="Player-to-Color" style="stroke:#181818;stroke-width:1.0;"/><polygon fill="#181818" points="770.88,870.7,777.837,863.7286,772.6701,866.0314,770.3673,860.8645,770.88,870.7" style="stroke:#181818;stroke-width:1.0;"/></g><!--MD5=[1571e4e0b7cdbae74b04c97a95677c54]
link Player to Goal--><g id="link_Player_Goal"><path codeLine="20" d="M518.66,271 C516.09,287 512.65,308.45 509.91,325.53 " fill="none" id="Player-to-Goal" style="stroke:#181818;stroke-width:1.0;"/><polygon fill="#181818" points="509.09,330.68,514.4766,322.4347,509.8889,325.7442,506.5793,321.1565,509.09,330.68" style="stroke:#181818;stroke-width:1.0;"/></g><!--MD5=[bb5cdf5a08f146afe1e7ba157c342a09]
link Player to Drop--><g id="link_Player_Drop"><path codeLine="21" d="M544.78,271.31 C583.25,311.27 661.57,392.63 702.35,434.99 " fill="none" id="Player-to-Drop" style="stroke:#181818;stroke-width:1.0;"/><polygon fill="#181818" points="705.94,438.72,702.5722,429.4649,702.4693,435.1208,696.8134,435.0179,705.94,438.72" style="stroke:#181818;stroke-width:1.0;"/><text fill="#000000" font-family="sans-serif" font-size="13" lengthAdjust="spacing" textLength="29" x="667.4818" y="427.9884">3..21</text></g><!--MD5=[048c76139c65c7da5251144b569a36e8]
link Goal to Drop--><g id="link_Goal_Drop"><path codeLine="22" d="M547.1865,375.8946 C547.1865,375.8946 645.17,422.47 684.65,441.23 " fill="none" id="Goal-Drop" style="stroke:#181818;stroke-width:1.0;"/><polygon fill="#181818" points="696.52,446.87,690.1034,439.3982,692.0027,444.7267,686.6742,446.626,696.52,446.87" style="stroke:#181818;stroke-width:1.0;"/><line style="stroke:#181818;stroke-width:1.0;" x1="692.0027" x2="684.78" y1="444.7267" y2="441.29"/><polygon fill="none" points="536.35,370.74,540.0501,376.9295,547.1865,375.8946,543.4865,369.7051,536.35,370.74" style="stroke:#181818;stroke-width:1.0;"/><text fill="#000000" font-family="sans-serif" font-size="13" lengthAdjust="spacing" textLength="7" x="681.7916" y="458.6251">4</text></g><!--MD5=[910fc1ea62bf1eddf04d73c08dc80310]
link Drop to Coordinate--><g id="link_Drop_Coordinate"><path codeLine="23" d="M726.28,487.31 C722.76,526.87 715.65,606.99 711.86,649.7 " fill="none" id="Drop-to-Coordinate" style="stroke:#181818;stroke-width:1.0;"/><polygon fill="#181818" points="711.41,654.72,716.1906,646.1092,711.8524,649.7396,708.222,645.4014,711.41,654.72" style="stroke:#181818;stroke-width:1.0;"/></g><!--MD5=[14c7478087e9c032e8f7572f81a660a8]
link Column to Coordinate--><g id="link_Column_Coordinate"><path codeLine="24" d="M658.2621,604.8444 C658.2621,604.8444 676.95,631.59 685.37,643.66 " fill="none" id="Column-Coordinate" style="stroke:#181818;stroke-width:1.0;"/><polygon fill="#181818" points="693.06,654.68,691.1862,645.011,690.1971,650.5807,684.6274,649.5916,693.06,654.68" style="stroke:#181818;stroke-width:1.0;"/><line style="stroke:#181818;stroke-width:1.0;" x1="690.1971" x2="685.62" y1="650.5807" y2="644.015"/><polygon fill="#181818" points="651.4,595,651.5496,602.2096,658.2621,604.8444,658.1125,597.6349,651.4,595" style="stroke:#181818;stroke-width:1.0;"/><text fill="#000000" font-family="sans-serif" font-size="13" lengthAdjust="spacing" textLength="7" x="681.2362" y="644.34">6</text></g><!--MD5=[b6eefb89000eeaab772fee4163f4fa43]
link Board to Column--><g id="link_Board_Column"><path codeLine="25" d="M324.3788,360.0162 C324.3788,360.0162 6,403.07 78.35,487 C143.17,562.2 455.72,570.32 582.13,570.47 " fill="none" id="Board-Column" style="stroke:#181818;stroke-width:1.0;"/><polygon fill="#181818" points="595.18,570.45,586.1756,566.4599,590.18,570.4555,586.1844,574.4599,595.18,570.45" style="stroke:#181818;stroke-width:1.0;"/><line style="stroke:#181818;stroke-width:1.0;" x1="590.18" x2="582.185" y1="570.4555" y2="570.47"/><polygon fill="#181818" points="336.32,358.83,329.954,355.4427,324.3788,360.0162,330.7448,363.4035,336.32,358.83" style="stroke:#181818;stroke-width:1.0;"/><text fill="#000000" font-family="sans-serif" font-size="13" lengthAdjust="spacing" textLength="7" x="580.4013" y="566.4535">7</text></g><!--MD5=[0ef6dc2491d99894b30ebc4454b9d964]
link Drop to Column--><g id="link_Drop_Column"><path codeLine="26" d="M708.17,487 C693.76,503.42 674.34,525.56 659.17,542.84 " fill="none" id="Drop-to-Column" style="stroke:#181818;stroke-width:1.0;"/><polygon fill="#181818" points="655.81,546.68,664.7457,542.5384,659.1015,542.9162,658.7237,537.272,655.81,546.68" style="stroke:#181818;stroke-width:1.0;"/></g><!--MD5=[aa10c799df1c327f18d69ad779ff0ea4]
link Coordinate to Token--><g id="link_Coordinate_Token"><path codeLine="27" d="M711.08,703 C712.29,719 713.91,740.45 715.2,757.53 " fill="none" id="Coordinate-to-Token" style="stroke:#181818;stroke-width:1.0;"/><polygon fill="#181818" points="715.59,762.68,718.9103,753.4077,715.2185,757.6938,710.9324,754.002,715.59,762.68" style="stroke:#181818;stroke-width:1.0;"/><text fill="#000000" font-family="sans-serif" font-size="13" lengthAdjust="spacing" textLength="7" x="707.3079" y="752.34">?</text></g><!--MD5=[304335c530676c0c2555e056aeeb939b]
link Token to Color--><g id="link_Token_Color"><path codeLine="28" d="M731.4895,822.0835 C731.4895,822.0835 741.93,847.23 746.63,858.54 " fill="none" id="Token-Color" style="stroke:#181818;stroke-width:1.0;"/><polygon fill="#181818" points="751.67,870.68,751.9108,860.8341,749.7516,866.0627,744.523,863.9035,751.67,870.68" style="stroke:#181818;stroke-width:1.0;"/><line style="stroke:#181818;stroke-width:1.0;" x1="749.7516" x2="746.68" y1="866.0627" y2="858.675"/><polygon fill="#181818" points="726.89,811,725.4952,818.0749,731.4895,822.0835,732.8842,815.0086,726.89,811" style="stroke:#181818;stroke-width:1.0;"/></g><!--MD5=[bb129f5f697b0ee2744afd3df4689e5e]
reverse link Goal to HorizontalGoal--><g id="link_Goal_HorizontalGoal"><path codeLine="29" d="M454.99,371.38 C392.96,390.33 287.58,422.52 220.55,443 " fill="none" id="Goal-backto-HorizontalGoal" style="stroke:#181818;stroke-width:1.0;"/><polygon fill="none" points="453.07,364.65,474.25,365.5,457.16,378.04,453.07,364.65" style="stroke:#181818;stroke-width:1.0;"/></g><!--MD5=[2e22876aebfcb7002258f1ccd2d75353]
reverse link Goal to VerticalGoal--><g id="link_Goal_VerticalGoal"><path codeLine="30" d="M456.03,382.81 C424.21,400.1 383.25,422.37 352.87,438.88 " fill="none" id="Goal-backto-VerticalGoal" style="stroke:#181818;stroke-width:1.0;"/><polygon fill="none" points="453.1,376.43,474.02,373.03,459.79,388.73,453.1,376.43" style="stroke:#181818;stroke-width:1.0;"/></g><!--MD5=[03fbe8d2bcf562e20d83625c30514d5e]
reverse link Goal to DiagonalGoal--><g id="link_Goal_DiagonalGoal"><path codeLine="31" d="M487.3,397.57 C481.24,411.54 474.7,426.62 469.47,438.68 " fill="none" id="Goal-backto-DiagonalGoal" style="stroke:#181818;stroke-width:1.0;"/><polygon fill="none" points="480.98,394.56,495.36,379,493.82,400.13,480.98,394.56" style="stroke:#181818;stroke-width:1.0;"/></g><!--MD5=[44c7a2f79c7cfedf600a252c2a184347]
reverse link Goal to InverseGoal--><g id="link_Goal_InverseGoal"><path codeLine="32" d="M541.67,393.75 C556.1,408.74 572.24,425.51 584.9,438.68 " fill="none" id="Goal-backto-InverseGoal" style="stroke:#181818;stroke-width:1.0;"/><polygon fill="none" points="536.3,398.27,527.48,379,546.39,388.56,536.3,398.27" style="stroke:#181818;stroke-width:1.0;"/></g><!--MD5=[fab54b5999e935266d298ad54749f91a]
reverse link Color to Red--><g id="link_Color_Red"><path codeLine="33" d="M741.96,937.09 C735.31,951.2 728.1,966.48 722.35,978.68 " fill="none" id="Color-backto-Red" style="stroke:#181818;stroke-width:1.0;"/><polygon fill="none" points="735.63,934.1,750.5,919,748.3,940.08,735.63,934.1" style="stroke:#181818;stroke-width:1.0;"/></g><!--MD5=[6083f140c68c81feb5a8fefe89deab0b]
reverse link Color to Yellow--><g id="link_Color_Yellow"><path codeLine="34" d="M780.73,937.09 C787.38,951.2 794.59,966.48 800.34,978.68 " fill="none" id="Color-backto-Yellow" style="stroke:#181818;stroke-width:1.0;"/><polygon fill="none" points="774.4,940.08,772.19,919,787.06,934.1,774.4,940.08" style="stroke:#181818;stroke-width:1.0;"/></g><!--MD5=[5451480ff35913393813dd03059ffabc]
@startuml vocabulary

class Connect4
class Turn
class Player
class Board
class Coordinate
class Token
class Goal
class Color
class Red
class Yellow
class Drop

Connect4 *-down-> Board
Connect4 *-down-> Turn
Connect4 *-down-> "2" Player
Turn -down-> "2" Player
Player -down-> Board
Player -down-> Color
Player -down-> Goal
Player -down-> "3..21" Drop
Goal o-down-> "4" Drop
Drop -down-> Coordinate
Column *-down-> "6" Coordinate
Board *-down-> "7" Column
Drop -down-> Column
Coordinate -down-> "?" Token
Token *-down-> Color
Goal <|-down- HorizontalGoal
Goal <|-down- VerticalGoal
Goal <|-down- DiagonalGoal
Goal <|-down- InverseGoal
Color <|-down- Red
Color <|-down- Yellow

@enduml

PlantUML version 1.2022.5(Sat Apr 30 12:55:52 CEST 2022)
(GPL source distribution)
Java Runtime: Java(TM) SE Runtime Environment
JVM: Java HotSpot(TM) 64-Bit Server VM
Default Encoding: Cp1252
Language: es
Country: ES
--></g></svg>