<?xml version="1.0" encoding="UTF-8" standalone="no"?><svg xmlns="http://www.w3.org/2000/svg" xmlns:xlink="http://www.w3.org/1999/xlink" contentStyleType="text/css" height="369px" preserveAspectRatio="none" style="width:418px;height:369px;background:#FFFFFF;" version="1.1" viewBox="0 0 418 369" width="418px" zoomAndPan="magnify"><defs/><g><g id="A"><rect fill="#F1F1F1" height="50" rx="12.5" ry="12.5" style="stroke:#181818;stroke-width:0.5;" width="50" x="179.58" y="87"/><line style="stroke:#181818;stroke-width:0.5;" x1="179.58" x2="229.58" y1="114.6094" y2="114.6094"/><text fill="#000000" font-family="sans-serif" font-size="14" lengthAdjust="spacing" textLength="4" x="202.58" y="106.5332"> </text></g><g id="B"><rect fill="#F1F1F1" height="50" rx="12.5" ry="12.5" style="stroke:#181818;stroke-width:0.5;" width="50" x="82.58" y="215"/><line style="stroke:#181818;stroke-width:0.5;" x1="82.58" x2="132.58" y1="242.6094" y2="242.6094"/><text fill="#000000" font-family="sans-serif" font-size="14" lengthAdjust="spacing" textLength="4" x="105.58" y="234.5332"> </text></g><ellipse cx="204.58" cy="16" fill="#222222" rx="10" ry="10" style="stroke:none;stroke-width:1.0;"/><ellipse cx="196.58" cy="353" fill="none" rx="10" ry="10" style="stroke:#222222;stroke-width:1.0;"/><ellipse cx="197.08" cy="353.5" fill="#222222" rx="6" ry="6" style="stroke:none;stroke-width:1.0;"/><!--MD5=[ba0fdac9700f9825b754e67fda8ee1b2]
link *start to A--><g id="link_*start_A"><path d="M204.58,26.01 C204.58,38.7 204.58,62.41 204.58,81.57 " fill="none" id="*start-to-A" style="stroke:#181818;stroke-width:1.0;"/><polygon fill="#181818" points="204.58,86.84,208.58,77.84,204.58,81.84,200.58,77.84,204.58,86.84" style="stroke:#181818;stroke-width:1.0;"/></g><!--MD5=[5e2eec62a50b26b6b0db6c12e4ee289c]
link A to B--><g id="link_A_B"><path d="M179.39,114.72 C147.22,118.43 92.68,130.12 67.58,167 C57.5,181.8 66.85,199.35 79.04,213.42 " fill="none" id="A-to-B" style="stroke:#181818;stroke-width:1.0;"/><polygon fill="#181818" points="82.54,217.29,79.4925,207.9245,79.1952,213.5735,73.5461,213.2762,82.54,217.29" style="stroke:#181818;stroke-width:1.0;"/><text fill="#000000" font-family="sans-serif" font-size="13" lengthAdjust="spacing" textLength="47" x="68.58" y="181.4951">drop red</text></g><!--MD5=[2c777c0c38089c390787dfc0786ecb92]
link B to A--><g id="link_B_A"><path d="M122.94,214.78 C132.24,200.55 144.58,182.38 156.58,167 C163.34,158.33 171.09,149.26 178.37,141.09 " fill="none" id="B-to-A" style="stroke:#181818;stroke-width:1.0;"/><polygon fill="#181818" points="181.9,137.16,172.9138,141.1909,178.5623,140.8828,178.8704,146.5313,181.9,137.16" style="stroke:#181818;stroke-width:1.0;"/><text fill="#000000" font-family="sans-serif" font-size="13" lengthAdjust="spacing" textLength="65" x="157.58" y="181.4951">drop yellow</text></g><!--MD5=[6b8dc95a046e31f2dba110a903aa35ee]
link A to *end--><g id="link_A_*end"><path d="M217.28,137.06 C221.42,146.17 225.5,156.82 227.58,167 C240.55,230.58 248.96,251.74 227.58,313 C223.63,324.3 214.89,334.78 207.7,342.02 " fill="none" id="A-to-*end" style="stroke:#181818;stroke-width:1.0;"/><polygon fill="#181818" points="203.9,345.7,213.1482,342.3132,207.4921,342.2219,207.5833,336.5658,203.9,345.7" style="stroke:#181818;stroke-width:1.0;"/><text fill="#000000" font-family="sans-serif" font-size="13" lengthAdjust="spacing" textLength="73" x="241.58" y="245.4951">[isConnect4]</text></g><!--MD5=[6b8dc95a046e31f2dba110a903aa35ee]
link A to *end--><g id="link_A_*end"><path d="M229.73,126.63 C272.71,151.82 352.95,208.31 323.58,265 C299.62,311.24 238.54,337.5 210.74,347.4 " fill="none" id="A-to-*end-1" style="stroke:#181818;stroke-width:1.0;"/><polygon fill="#181818" points="205.96,349.06,215.7728,349.9021,210.686,347.4274,213.1606,342.3406,205.96,349.06" style="stroke:#181818;stroke-width:1.0;"/><text fill="#000000" font-family="sans-serif" font-size="13" lengthAdjust="spacing" textLength="80" x="330.58" y="245.4951">[isCompleted]</text></g><!--MD5=[0c9beda43035afb57879f51f871461ea]
link B to *end--><g id="link_B_*end"><path d="M82.48,250.22 C51.71,262.92 6,287.17 26.58,313 C45.91,337.27 143.22,347.67 181.28,350.86 " fill="none" id="B-to-*end" style="stroke:#181818;stroke-width:1.0;"/><polygon fill="#181818" points="186.45,351.28,177.7987,346.5731,181.466,350.8801,177.1589,354.5474,186.45,351.28" style="stroke:#181818;stroke-width:1.0;"/><text fill="#000000" font-family="sans-serif" font-size="13" lengthAdjust="spacing" textLength="73" x="27.58" y="309.4951">[isConnect4]</text></g><!--MD5=[0c9beda43035afb57879f51f871461ea]
link B to *end--><g id="link_B_*end"><path d="M115.4,265.13 C121.05,280.03 129.77,298.91 141.58,313 C153.26,326.94 171.02,338.32 183.18,345.12 " fill="none" id="B-to-*end-1" style="stroke:#181818;stroke-width:1.0;"/><polygon fill="#181818" points="187.7,347.58,181.6948,339.7738,183.3045,345.1967,177.8816,346.8065,187.7,347.58" style="stroke:#181818;stroke-width:1.0;"/><text fill="#000000" font-family="sans-serif" font-size="13" lengthAdjust="spacing" textLength="80" x="142.58" y="309.4951">[isCompleted]</text></g><!--MD5=[f9befa5f10170779695f6a2517863713]
@startuml instructionsState

state A as " "
state B as " "

[*] - -> A
A - -> B: drop red
B - -> A : drop yellow
A - -> [*] : [isConnect4]
B - -> [*] : [isConnect4]
A - -> [*] : [isCompleted]
B - -> [*] : [isCompleted]

@enduml

PlantUML version 1.2022.5(Sat Apr 30 12:55:52 CEST 2022)
(GPL source distribution)
Java Runtime: Java(TM) SE Runtime Environment
JVM: Java HotSpot(TM) 64-Bit Server VM
Default Encoding: Cp1252
Language: es
Country: ES
--></g></svg>